<svg xmlns="http://www.w3.org/2000/svg" viewBox="0 0 980 720" width="980" height="720"
     font-family="'Helvetica Neue', Helvetica, Arial, sans-serif">
<defs>
  <marker id="a"  viewBox="0 0 8 8" refX="7" refY="4" markerWidth="5" markerHeight="5" orient="auto"><path d="M0,0 L8,4 L0,8 Z" fill="#374151"/></marker>
  <marker id="ab" viewBox="0 0 8 8" refX="7" refY="4" markerWidth="5" markerHeight="5" orient="auto"><path d="M0,0 L8,4 L0,8 Z" fill="#2563EB"/></marker>
  <marker id="ag" viewBox="0 0 8 8" refX="7" refY="4" markerWidth="5" markerHeight="5" orient="auto"><path d="M0,0 L8,4 L0,8 Z" fill="#16A34A"/></marker>
  <marker id="ap" viewBox="0 0 8 8" refX="7" refY="4" markerWidth="5" markerHeight="5" orient="auto"><path d="M0,0 L8,4 L0,8 Z" fill="#7C3AED"/></marker>
  <marker id="ao" viewBox="0 0 8 8" refX="7" refY="4" markerWidth="5" markerHeight="5" orient="auto"><path d="M0,0 L8,4 L0,8 Z" fill="#EA580C"/></marker>
  <marker id="am" viewBox="0 0 8 8" refX="7" refY="4" markerWidth="5" markerHeight="5" orient="auto"><path d="M0,0 L8,4 L0,8 Z" fill="#0891B2"/></marker>
  <filter id="sh"><feDropShadow dx="0" dy="1" stdDeviation="2.5" flood-color="#00000015"/></filter>
  <filter id="glow"><feGaussianBlur stdDeviation="2.5" result="c"/><feMerge><feMergeNode in="c"/><feMergeNode in="SourceGraphic"/></feMerge></filter>
</defs>

<rect width="980" height="720" fill="#F9FAFB"/>

<!-- ══════════════════════════════════════════════════════════════════
     PANEL A  — Multi-fidelity Pipeline
     ══════════════════════════════════════════════════════════════════ -->
<rect x="10" y="8" width="960" height="168" rx="8" fill="white" stroke="#E5E7EB" stroke-width="1" filter="url(#sh)"/>
<text x="490" y="27" text-anchor="middle" font-size="10.5" font-weight="700" letter-spacing="1.2" fill="#111827">(a)  MULTI-FIDELITY SEARCH PIPELINE</text>

<!-- ── Phase 1 ── Zero-cost Scoring -->
<rect x="20" y="35" width="163" height="132" rx="6" fill="#EFF6FF" stroke="#93C5FD" stroke-width="1.2"/>
<rect x="20" y="35" width="163" height="28" rx="6" fill="#2563EB"/>
<rect x="20" y="56" width="163" height="7" fill="#2563EB"/>
<circle cx="46" cy="49" r="12" fill="white" opacity="0.2"/>
<text x="46" y="53" text-anchor="middle" font-size="12" font-weight="900" fill="white">1</text>
<text x="115" y="52" text-anchor="middle" font-size="9" font-weight="700" fill="white">Zero-cost Scoring</text>

<!-- candidate dot grid (4×3) -->
<circle cx="44"  cy="81" r="4.5" fill="#60A5FA"/><circle cx="60"  cy="77" r="4.5" fill="#93C5FD"/>
<circle cx="76"  cy="81" r="4.5" fill="#60A5FA"/><circle cx="92"  cy="77" r="4.5" fill="#60A5FA"/>
<circle cx="44"  cy="97" r="4.5" fill="#93C5FD"/><circle cx="60"  cy="97" r="4.5" fill="#60A5FA"/>
<circle cx="76"  cy="97" r="4.5" fill="#93C5FD"/><circle cx="92"  cy="97" r="4.5" fill="#60A5FA"/>
<circle cx="44" cy="113" r="4.5" fill="#60A5FA"/><circle cx="60" cy="113" r="4.5" fill="#93C5FD"/>
<circle cx="76" cy="113" r="4.5" fill="#60A5FA"/><circle cx="92" cy="113" r="4.5" fill="#93C5FD"/>
<!-- score bars beside dots (mini horizontal) -->
<text x="108" y="84" font-size="6.5" fill="#374151">NTK ████▌</text>
<text x="108" y="100" font-size="6.5" fill="#374151">SNIP ███░░</text>
<text x="108" y="116" font-size="6.5" fill="#374151">Synflow ██░</text>
<text x="101" y="137" text-anchor="middle" font-size="7" fill="#374151">N candidates</text>
<text x="101" y="149" text-anchor="middle" font-size="6.5" fill="#6B7280">proxy eval only</text>
<text x="101" y="161" text-anchor="middle" font-size="6.5" fill="#6B7280" font-style="italic">no training needed</text>

<!-- arrow -->
<line x1="183" y1="101" x2="200" y2="101" stroke="#374151" stroke-width="1.8" marker-end="url(#a)"/>

<!-- ── Phase 2 ── Select top-k -->
<rect x="201" y="35" width="140" height="132" rx="6" fill="#EFF6FF" stroke="#93C5FD" stroke-width="1.2"/>
<rect x="201" y="35" width="140" height="28" rx="6" fill="#2563EB"/>
<rect x="201" y="56" width="140" height="7" fill="#2563EB"/>
<circle cx="226" cy="49" r="12" fill="white" opacity="0.2"/>
<text x="226" y="53" text-anchor="middle" font-size="12" font-weight="900" fill="white">2</text>
<text x="290" y="52" text-anchor="middle" font-size="9" font-weight="700" fill="white">Select Top-k</text>

<!-- funnel -->
<polygon points="213,67 329,67 313,122 229,122" fill="#DBEAFE" stroke="#93C5FD" stroke-width="1"/>
<!-- faded dots at top -->
<circle cx="228" cy="76" r="3.5" fill="#93C5FD" opacity="0.4"/>
<circle cx="243" cy="73" r="3.5" fill="#93C5FD" opacity="0.4"/>
<circle cx="258" cy="77" r="3.5" fill="#93C5FD" opacity="0.4"/>
<circle cx="273" cy="73" r="3.5" fill="#93C5FD" opacity="0.4"/>
<circle cx="288" cy="77" r="3.5" fill="#93C5FD" opacity="0.4"/>
<circle cx="303" cy="73" r="3.5" fill="#93C5FD" opacity="0.3"/>
<circle cx="318" cy="77" r="3.5" fill="#93C5FD" opacity="0.2"/>
<!-- bright dots at bottom = top-k -->
<circle cx="247" cy="115" r="5.5" fill="#2563EB" filter="url(#glow)"/>
<circle cx="272" cy="118" r="5.5" fill="#2563EB" filter="url(#glow)"/>
<circle cx="297" cy="115" r="5.5" fill="#2563EB" filter="url(#glow)"/>
<text x="271" y="138" text-anchor="middle" font-size="7.5" fill="#374151">N  →  top-k</text>
<text x="271" y="153" text-anchor="middle" font-size="6.5" fill="#6B7280">by proxy score</text>

<!-- arrow -->
<line x1="341" y1="101" x2="358" y2="101" stroke="#374151" stroke-width="1.8" marker-end="url(#a)"/>

<!-- ── Phase 3 ── Bilevel DARTS -->
<rect x="359" y="35" width="158" height="132" rx="6" fill="#EFF6FF" stroke="#93C5FD" stroke-width="1.2"/>
<rect x="359" y="35" width="158" height="28" rx="6" fill="#2563EB"/>
<rect x="359" y="56" width="158" height="7" fill="#2563EB"/>
<circle cx="384" cy="49" r="12" fill="white" opacity="0.2"/>
<text x="384" y="53" text-anchor="middle" font-size="12" font-weight="900" fill="white">3</text>
<text x="459" y="52" text-anchor="middle" font-size="9" font-weight="700" fill="white">Bilevel DARTS</text>

<!-- bilevel diagram: two concentric ovals -->
<ellipse cx="438" cy="100" rx="60" ry="36" fill="none" stroke="#93C5FD" stroke-width="1.2" stroke-dasharray="4,3"/>
<ellipse cx="438" cy="100" rx="36" ry="22" fill="#DBEAFE" stroke="#2563EB" stroke-width="1.3"/>
<text x="438" y="95"  text-anchor="middle" font-size="8" font-weight="700" fill="#1E3A5F">w*</text>
<text x="438" y="107" text-anchor="middle" font-size="7"   fill="#374151">∂L_tr/∂w</text>
<!-- arch update loop arrow -->
<path d="M 392,72 A 48,30 0 0 1 484,72" fill="none" stroke="#93C5FD" stroke-width="1.2" marker-end="url(#ab)"/>
<text x="438" y="68"  text-anchor="middle" font-size="7" fill="#2563EB" font-weight="600">∂L_val/∂α</text>
<text x="438" y="144" text-anchor="middle" font-size="7" fill="#374151">short search / cand.</text>
<text x="438" y="158" text-anchor="middle" font-size="6.5" fill="#6B7280" font-style="italic">temp. annealing</text>

<!-- arrow -->
<line x1="517" y1="101" x2="534" y2="101" stroke="#374151" stroke-width="1.8" marker-end="url(#a)"/>

<!-- ── Phase 4 ── Derivation -->
<rect x="535" y="35" width="150" height="132" rx="6" fill="#FFF7ED" stroke="#FED7AA" stroke-width="1.2"/>
<rect x="535" y="35" width="150" height="28" rx="6" fill="#EA580C"/>
<rect x="535" y="56" width="150" height="7" fill="#EA580C"/>
<circle cx="560" cy="49" r="12" fill="white" opacity="0.2"/>
<text x="560" y="53" text-anchor="middle" font-size="12" font-weight="900" fill="white">4</text>
<text x="623" y="52" text-anchor="middle" font-size="9" font-weight="700" fill="white">Derivation</text>

<!-- mixed → discrete  visual -->
<!-- mixed block: stacked transparent ops -->
<rect x="548" y="68" width="46" height="20" rx="3" fill="#BFDBFE" opacity="0.45"/>
<rect x="548" y="74" width="46" height="20" rx="3" fill="#BBF7D0" opacity="0.45"/>
<rect x="548" y="80" width="46" height="20" rx="3" fill="#DDD6FE" opacity="0.45"/>
<rect x="548" y="86" width="46" height="20" rx="3" fill="#FDE68A" opacity="0.45"/>
<text x="571" y="100" text-anchor="middle" font-size="7" fill="#374151" font-weight="600">Σ αᵢ·opᵢ</text>

<!-- argmax arrow -->
<path d="M 596,89 L 614,89" stroke="#EA580C" stroke-width="1.8" marker-end="url(#ao)"/>
<text x="605" y="82" text-anchor="middle" font-size="6.5" fill="#EA580C" font-weight="700">argmax</text>

<!-- discrete block -->
<rect x="614" y="72" width="46" height="34" rx="3" fill="#FED7AA" stroke="#EA580C" stroke-width="1.5"/>
<text x="637" y="87" text-anchor="middle" font-size="9" fill="#7C2D12" font-weight="800">op★</text>
<text x="637" y="100" text-anchor="middle" font-size="6.5" fill="#9A3412">discrete</text>

<!-- winner medal (circle + checkmark) -->
<circle cx="610" cy="128" r="13" fill="#FEF3C7" stroke="#D97706" stroke-width="1.5"/>
<text x="610" y="134" text-anchor="middle" font-size="14" fill="#D97706">★</text>
<text x="610" y="155" text-anchor="middle" font-size="7" fill="#374151">best candidate</text>
<text x="610" y="163" text-anchor="middle" font-size="6.5" fill="#6B7280" font-style="italic">by val. loss</text>

<!-- arrow -->
<line x1="685" y1="101" x2="702" y2="101" stroke="#374151" stroke-width="1.8" marker-end="url(#a)"/>

<!-- ── Phase 5 ── Final Training -->
<rect x="703" y="35" width="259" height="132" rx="6" fill="#FFF7ED" stroke="#FED7AA" stroke-width="1.2"/>
<rect x="703" y="35" width="259" height="28" rx="6" fill="#EA580C"/>
<rect x="703" y="56" width="259" height="7" fill="#EA580C"/>
<circle cx="728" cy="49" r="12" fill="white" opacity="0.2"/>
<text x="728" y="53" text-anchor="middle" font-size="12" font-weight="900" fill="white">5</text>
<text x="820" y="52" text-anchor="middle" font-size="9" font-weight="700" fill="white">Full Final Training</text>

<!-- loss curves -->
<!-- axis -->
<line x1="716" y1="130" x2="953" y2="130" stroke="#D1D5DB" stroke-width="0.8"/>
<line x1="716" y1="70" x2="716" y2="130" stroke="#D1D5DB" stroke-width="0.8"/>
<text x="712" y="73" font-size="6" fill="#9CA3AF" text-anchor="end">loss</text>
<!-- train curve (blue, steep drop) -->
<path d="M716,110 C730,90 750,72 780,67 S840,62 880,60 S930,59 953,58.5"
      fill="none" stroke="#2563EB" stroke-width="2" stroke-linecap="round"/>
<!-- val curve (green dashed) -->
<path d="M716,114 C730,98 750,82 780,76 S840,72 880,70.5 S930,70 953,69.8"
      fill="none" stroke="#16A34A" stroke-width="1.5" stroke-dasharray="4,2" stroke-linecap="round"/>
<!-- SWA marker: vertical dashed -->
<line x1="888" y1="62" x2="888" y2="130" stroke="#EA580C" stroke-width="1" stroke-dasharray="3,2"/>
<text x="889" y="76" font-size="6.5" fill="#EA580C" font-weight="600">SWA</text>
<!-- legend -->
<rect x="717" y="136" width="8" height="4" rx="1" fill="#2563EB"/>
<text x="728" y="141" font-size="6.5" fill="#374151">train</text>
<line x1="750" y1="138" x2="762" y2="138" stroke="#16A34A" stroke-width="1.5" stroke-dasharray="4,2"/>
<text x="765" y="141" font-size="6.5" fill="#374151">val</text>
<text x="800" y="141" font-size="6.5" fill="#374151">AdamW · OneCycle · AMP</text>
<text x="953" y="133" font-size="6" fill="#9CA3AF" text-anchor="end">epoch</text>
<text x="834" y="162" text-anchor="middle" font-size="6.5" fill="#9A3412" font-style="italic">early stopping · best model by SWA val. loss</text>


<!-- ══════════════════════════════════════════════════════════════════
     PANEL B  — DARTS Cell DAG
     ══════════════════════════════════════════════════════════════════ -->
<rect x="10" y="186" width="458" height="510" rx="8" fill="white" stroke="#E5E7EB" stroke-width="1" filter="url(#sh)"/>
<text x="239" y="206" text-anchor="middle" font-size="10.5" font-weight="700" letter-spacing="1.2" fill="#111827">(b)  DARTS CELL — MIXED-OPERATION DAG</text>

<!--  Left half: SEARCH (continuous)  -->
<text x="108" y="226" text-anchor="middle" font-size="8" fill="#6B7280" letter-spacing="0.8" font-weight="600">SEARCH  (continuous)</text>

<!-- ── Stacked / blended edges (showing superposition) ── -->
<!-- c_in → h1 (upper path): multiple faded ops + one dominant -->
<path d="M83,370 Q104,318 122,302" fill="none" stroke="#93C5FD" stroke-width="9" opacity="0.18" stroke-linecap="round"/>
<path d="M83,373 Q104,323 122,307" fill="none" stroke="#6EE7B7" stroke-width="7" opacity="0.2"  stroke-linecap="round"/>
<path d="M83,376 Q104,328 122,312" fill="none" stroke="#C4B5FD" stroke-width="5" opacity="0.2"  stroke-linecap="round"/>
<path d="M83,378 Q104,332 122,315" fill="none" stroke="#FDE68A" stroke-width="3" opacity="0.2"  stroke-linecap="round"/>
<path d="M83,374 Q104,324 122,308" fill="none" stroke="#2563EB" stroke-width="2.2" stroke-linecap="round" marker-end="url(#ab)"/>

<!-- c_in → h2 (lower path) -->
<path d="M83,390 Q104,442 122,458" fill="none" stroke="#93C5FD" stroke-width="9" opacity="0.18" stroke-linecap="round"/>
<path d="M83,393 Q104,447 122,463" fill="none" stroke="#6EE7B7" stroke-width="7" opacity="0.2"  stroke-linecap="round"/>
<path d="M83,396 Q104,452 122,468" fill="none" stroke="#C4B5FD" stroke-width="5" opacity="0.2"  stroke-linecap="round"/>
<path d="M83,391 Q104,443 122,459" fill="none" stroke="#2563EB" stroke-width="2.2" stroke-linecap="round" marker-end="url(#ab)"/>

<!-- h1 → c_out -->
<path d="M147,291 Q172,322 184,362" fill="none" stroke="#93C5FD" stroke-width="9" opacity="0.18" stroke-linecap="round"/>
<path d="M150,292 Q175,325 187,365" fill="none" stroke="#6EE7B7" stroke-width="7" opacity="0.2"  stroke-linecap="round"/>
<path d="M153,293 Q178,328 190,368" fill="none" stroke="#C4B5FD" stroke-width="5" opacity="0.2"  stroke-linecap="round"/>
<path d="M149,292 Q174,323 186,363" fill="none" stroke="#2563EB" stroke-width="2.2" stroke-linecap="round" marker-end="url(#ab)"/>

<!-- h2 → c_out -->
<path d="M147,469 Q172,438 184,398" fill="none" stroke="#93C5FD" stroke-width="9" opacity="0.18" stroke-linecap="round"/>
<path d="M150,468 Q175,435 187,395" fill="none" stroke="#6EE7B7" stroke-width="7" opacity="0.2"  stroke-linecap="round"/>
<path d="M153,467 Q178,432 190,392" fill="none" stroke="#C4B5FD" stroke-width="5" opacity="0.2"  stroke-linecap="round"/>
<path d="M149,468 Q174,436 186,396" fill="none" stroke="#2563EB" stroke-width="2.2" stroke-linecap="round" marker-end="url(#ab)"/>

<!-- ── Weight bar callout on c_in→h1 edge ── -->
<rect x="65" y="318" width="42" height="54" rx="3" fill="white" stroke="#DBEAFE" stroke-width="1"/>
<!-- bar chart of α weights -->
<rect x="68" y="321" width="18" height="7" rx="1" fill="#2563EB"/>
<rect x="68" y="331" width="12" height="7" rx="1" fill="#16A34A"/>
<rect x="68" y="341" width="7"  height="7" rx="1" fill="#7C3AED"/>
<rect x="68" y="351" width="4"  height="7" rx="1" fill="#FCD34D"/>
<text x="88" y="328" font-size="5.5" fill="#374151">Identity</text>
<text x="88" y="338" font-size="5.5" fill="#374151">TimeConv</text>
<text x="88" y="348" font-size="5.5" fill="#374151">Fourier</text>
<text x="88" y="358" font-size="5.5" fill="#374151">GRN ···</text>
<text x="75" y="368" font-size="5.5" fill="#6B7280" text-anchor="middle">softmax(α/τ)</text>

<!-- ── Temperature indicator (left) ── -->
<rect x="30" y="345" width="9" height="35" rx="4.5" fill="none" stroke="#F97316" stroke-width="1.2"/>
<rect x="32" y="362" width="5" height="18" rx="2.5" fill="#F97316" opacity="0.7"/>
<circle cx="34.5" cy="380" r="6" fill="#F97316"/>
<text x="34" y="336" text-anchor="middle" font-size="7" fill="#F97316" font-weight="700">τ</text>
<text x="20" y="352" font-size="5.5" fill="#9CA3AF" text-anchor="end">cool</text>
<text x="20" y="373" font-size="5.5" fill="#9CA3AF" text-anchor="end">warm</text>
<text x="34" y="395" font-size="5.5" fill="#F97316" text-anchor="middle">anneal</text>

<!-- ── Cell nodes ── -->
<circle cx="70"  cy="380" r="24" fill="#DBEAFE" stroke="#2563EB" stroke-width="2.2" filter="url(#sh)"/>
<text x="70"  y="376" text-anchor="middle" font-size="10" font-weight="700" fill="#1E3A5F">c</text>
<text x="70"  y="390" text-anchor="middle" font-size="7.5" fill="#374151">k−1</text>

<circle cx="132" cy="286" r="22" fill="#DBEAFE" stroke="#2563EB" stroke-width="2" filter="url(#sh)"/>
<text x="132" y="282" text-anchor="middle" font-size="10" font-weight="700" fill="#1E3A5F">h</text>
<text x="132" y="295" text-anchor="middle" font-size="7.5" fill="#374151">1</text>

<circle cx="132" cy="474" r="22" fill="#DBEAFE" stroke="#2563EB" stroke-width="2" filter="url(#sh)"/>
<text x="132" y="470" text-anchor="middle" font-size="10" font-weight="700" fill="#1E3A5F">h</text>
<text x="132" y="483" text-anchor="middle" font-size="7.5" fill="#374151">2</text>

<circle cx="198" cy="380" r="24" fill="#DBEAFE" stroke="#2563EB" stroke-width="2.2" filter="url(#sh)"/>
<text x="198" y="376" text-anchor="middle" font-size="10" font-weight="700" fill="#1E3A5F">c</text>
<text x="198" y="390" text-anchor="middle" font-size="7.5" fill="#374151">k</text>

<!-- formula label -->
<rect x="17" y="505" width="210" height="20" rx="3" fill="#EFF6FF" stroke="#BFDBFE" stroke-width="0.8"/>
<text x="122" y="518" text-anchor="middle" font-size="8" fill="#1E3A5F" font-weight="600">o̅(x) = Σᵢ softmax(αᵢ/τ) · opᵢ(x)</text>

<!-- ────── DIVIDER ────── -->
<line x1="236" y1="218" x2="236" y2="686" stroke="#E5E7EB" stroke-width="1.2" stroke-dasharray="5,4"/>

<!-- Right half: DERIVED (discrete) -->
<text x="340" y="226" text-anchor="middle" font-size="8" fill="#EA580C" letter-spacing="0.8" font-weight="600">DERIVED  (discrete)</text>

<!-- argmax transformation arrow -->
<line x1="204" y1="380" x2="248" y2="380" stroke="#EA580C" stroke-width="2.2" marker-end="url(#ao)"/>
<rect x="205" y="365" width="44" height="13" rx="3" fill="#FFF7ED"/>
<text x="227" y="374" text-anchor="middle" font-size="6.5" fill="#EA580C" font-weight="700">argmax α</text>

<!-- ── Discrete edges (single clean colored line per op) ── -->
<path d="M284,371 Q304,326 318,310" fill="none" stroke="#EA580C" stroke-width="2.8" stroke-linecap="round" marker-end="url(#ao)"/>
<path d="M284,389 Q304,434 318,450" fill="none" stroke="#EA580C" stroke-width="2.8" stroke-linecap="round" marker-end="url(#ao)"/>
<path d="M342,283 Q368,320 380,360" fill="none" stroke="#EA580C" stroke-width="2.8" stroke-linecap="round" marker-end="url(#ao)"/>
<path d="M342,467 Q368,440 380,400" fill="none" stroke="#EA580C" stroke-width="2.8" stroke-linecap="round" marker-end="url(#ao)"/>

<!-- op* badges -->
<rect x="287" y="322" width="24" height="15" rx="3" fill="#FEF3C7" stroke="#EA580C" stroke-width="1"/>
<text x="299" y="333" text-anchor="middle" font-size="7" fill="#7C2D12" font-weight="700">op★</text>
<rect x="287" y="420" width="24" height="15" rx="3" fill="#FEF3C7" stroke="#EA580C" stroke-width="1"/>
<text x="299" y="431" text-anchor="middle" font-size="7" fill="#7C2D12" font-weight="700">op★</text>
<rect x="349" y="308" width="24" height="15" rx="3" fill="#FEF3C7" stroke="#EA580C" stroke-width="1"/>
<text x="361" y="319" text-anchor="middle" font-size="7" fill="#7C2D12" font-weight="700">op★</text>
<rect x="349" y="427" width="24" height="15" rx="3" fill="#FEF3C7" stroke="#EA580C" stroke-width="1"/>
<text x="361" y="438" text-anchor="middle" font-size="7" fill="#7C2D12" font-weight="700">op★</text>

<!-- Discrete cell nodes -->
<circle cx="270" cy="380" r="24" fill="#FEF3C7" stroke="#EA580C" stroke-width="2.2" filter="url(#sh)"/>
<text x="270" y="376" text-anchor="middle" font-size="10" font-weight="700" fill="#7C2D12">c</text>
<text x="270" y="390" text-anchor="middle" font-size="7.5" fill="#9A3412">k−1</text>

<circle cx="333" cy="270" r="22" fill="#FEF3C7" stroke="#EA580C" stroke-width="2" filter="url(#sh)"/>
<text x="333" y="266" text-anchor="middle" font-size="10" font-weight="700" fill="#7C2D12">h</text>
<text x="333" y="279" text-anchor="middle" font-size="7.5" fill="#9A3412">1</text>

<circle cx="333" cy="480" r="22" fill="#FEF3C7" stroke="#EA580C" stroke-width="2" filter="url(#sh)"/>
<text x="333" y="476" text-anchor="middle" font-size="10" font-weight="700" fill="#7C2D12">h</text>
<text x="333" y="489" text-anchor="middle" font-size="7.5" fill="#9A3412">2</text>

<circle cx="396" cy="380" r="24" fill="#FEF3C7" stroke="#EA580C" stroke-width="2.2" filter="url(#sh)"/>
<text x="396" y="376" text-anchor="middle" font-size="10" font-weight="700" fill="#7C2D12">c</text>
<text x="396" y="390" text-anchor="middle" font-size="7.5" fill="#9A3412">k</text>

<!-- discrete formula -->
<rect x="240" y="505" width="202" height="20" rx="3" fill="#FFF7ED" stroke="#FED7AA" stroke-width="0.8"/>
<text x="341" y="518" text-anchor="middle" font-size="8" fill="#7C2D12" font-weight="600">op★ = opᵢ  where  i = argmax α</text>

<!-- ── op legend bottom ── -->
<rect x="14" y="530" width="440" height="156" rx="4" fill="#F9FAFB" stroke="#E5E7EB" stroke-width="0.8"/>
<text x="234" y="542" text-anchor="middle" font-size="7" font-weight="700" fill="#374151">Candidate operations — DEFAULT_OPS (14 cell ops; Mamba is a topology mode, not a cell op)</text>
<!-- row 1 -->
<rect x="22"  y="548" width="9" height="9" rx="2" fill="#2563EB"/><text x="34"  y="556" font-size="6.5" fill="#374151">Identity</text>
<rect x="80"  y="548" width="9" height="9" rx="2" fill="#16A34A"/><text x="92"  y="556" font-size="6.5" fill="#374151">TimeConv</text>
<rect x="148" y="548" width="9" height="9" rx="2" fill="#7C3AED"/><text x="160" y="556" font-size="6.5" fill="#374151">GRN</text>
<rect x="192" y="548" width="9" height="9" rx="2" fill="#EA580C"/><text x="204" y="556" font-size="6.5" fill="#374151">Wavelet</text>
<rect x="252" y="548" width="9" height="9" rx="2" fill="#D97706"/><text x="264" y="556" font-size="6.5" fill="#374151">Fourier</text>
<rect x="308" y="548" width="9" height="9" rx="2" fill="#0891B2"/><text x="320" y="556" font-size="6.5" fill="#374151">TCN</text>
<rect x="352" y="548" width="9" height="9" rx="2" fill="#BE185D"/><text x="364" y="556" font-size="6.5" fill="#374151">ResidualMLP</text>
<!-- row 2 -->
<rect x="22"  y="562" width="9" height="9" rx="2" fill="#4F46E5"/><text x="34"  y="570" font-size="6.5" fill="#374151">ConvMixer</text>
<rect x="98"  y="562" width="9" height="9" rx="2" fill="#059669"/><text x="110" y="570" font-size="6.5" fill="#374151">MultiScaleConv</text>
<rect x="192" y="562" width="9" height="9" rx="2" fill="#B45309"/><text x="204" y="570" font-size="6.5" fill="#374151">PyramidConv</text>
<rect x="272" y="562" width="9" height="9" rx="2" fill="#0E7490"/><text x="284" y="570" font-size="6.5" fill="#374151">PatchEmbed</text>
<rect x="352" y="562" width="9" height="9" rx="2" fill="#6D28D9"/><text x="364" y="570" font-size="6.5" fill="#374151">InvertedAttn</text>
<!-- row 3 -->
<rect x="22"  y="576" width="9" height="9" rx="2" fill="#DC2626"/><text x="34"  y="584" font-size="6.5" fill="#374151">NBeats</text>
<rect x="84"  y="576" width="9" height="9" rx="2" fill="#C2410C"/><text x="96"  y="584" font-size="6.5" fill="#374151">TimesNet</text>
<!-- Separate alpha search params -->
<line x1="14" y1="592" x2="454" y2="592" stroke="#E5E7EB" stroke-width="0.6"/>
<rect x="14" y="596" width="440" height="26" rx="3" fill="#FFFBEB" stroke="#FDE68A" stroke-width="0.8"/>
<text x="234" y="606" text-anchor="middle" font-size="6.5" fill="#92400E" font-weight="600">Encoder α: {LSTM, GRU, Transformer, PatchTST}   ·   Decoder α: {LSTM, GRU, Transformer}</text>
<text x="234" y="617" text-anchor="middle" font-size="6.5" fill="#92400E">AttentionBridge α: {none, sdp, linear, probsparse, cosine, local}  (6 modes, searched jointly)</text>


<!-- ══════════════════════════════════════════════════════════════════
     PANEL C  —  Topology Modes
     ══════════════════════════════════════════════════════════════════ -->
<rect x="478" y="186" width="492" height="514" rx="8" fill="white" stroke="#E5E7EB" stroke-width="1" filter="url(#sh)"/>
<text x="724" y="206" text-anchor="middle" font-size="10.5" font-weight="700" letter-spacing="1.2" fill="#111827">(c)  TOPOLOGY MODES  ( arch_mode )</text>

<!-- ═══ Mode 1: encoder_decoder  (y=216, h=106, center=270) ═══ -->
<rect x="488" y="216" width="472" height="106" rx="6" fill="#EFF6FF" stroke="#2563EB" stroke-width="1.5"/>
<rect x="488" y="216" width="472" height="26" rx="6" fill="#2563EB"/>
<rect x="488" y="234" width="472" height="8" fill="#2563EB"/>
<text x="724" y="232" text-anchor="middle" font-size="9.5" font-weight="700" fill="white" letter-spacing="0.5">encoder_decoder</text>
<!-- flow center_y=270, box_top=253 -->
<rect x="496" y="253" width="36" height="34" rx="4" fill="white" stroke="#93C5FD" stroke-width="1"/>
<text x="514" y="267" text-anchor="middle" font-size="7" font-weight="600" fill="#374151">Input</text>
<text x="514" y="278" text-anchor="middle" font-size="5.5" fill="#6B7280">B,L,C</text>
<line x1="532" y1="270" x2="540" y2="270" stroke="#2563EB" stroke-width="1.4" marker-end="url(#ab)"/>
<rect x="540" y="253" width="38" height="34" rx="4" fill="#DBEAFE" stroke="#2563EB" stroke-width="1"/>
<text x="559" y="267" text-anchor="middle" font-size="7" font-weight="600" fill="#1E3A5F">RevIN</text>
<text x="559" y="278" text-anchor="middle" font-size="5.5" fill="#374151">searched</text>
<line x1="578" y1="270" x2="586" y2="270" stroke="#2563EB" stroke-width="1.4" marker-end="url(#ab)"/>
<rect x="586" y="249" width="54" height="42" rx="4" fill="#BFDBFE" stroke="#2563EB" stroke-width="1.5"/>
<text x="613" y="264" text-anchor="middle" font-size="7" font-weight="700" fill="#1E3A5F">Backbone</text>
<text x="613" y="274" text-anchor="middle" font-size="6.5" fill="#374151">DARTS cells</text>
<text x="613" y="283" text-anchor="middle" font-size="5.5" fill="#6B7280">K layers</text>
<line x1="640" y1="270" x2="648" y2="270" stroke="#2563EB" stroke-width="1.4" marker-end="url(#ab)"/>
<!-- Encoder: 4 options -->
<rect x="648" y="253" width="48" height="34" rx="4" fill="#93C5FD" stroke="#2563EB" stroke-width="1.2"/>
<text x="672" y="264" text-anchor="middle" font-size="7" font-weight="700" fill="#1E3A5F">Encoder</text>
<text x="672" y="273" text-anchor="middle" font-size="5.5" fill="#1E3A5F">LSTM·GRU</text>
<text x="672" y="282" text-anchor="middle" font-size="5.5" fill="#1E3A5F">Tfm·Patch</text>
<line x1="696" y1="270" x2="704" y2="270" stroke="#2563EB" stroke-width="1.4" marker-end="url(#ab)"/>
<!-- AttentionBridge: 6 modes -->
<rect x="704" y="253" width="48" height="34" rx="4" fill="#EDE9FE" stroke="#7C3AED" stroke-width="1.2"/>
<text x="728" y="263" text-anchor="middle" font-size="6.5" font-weight="700" fill="#4C1D95">AttnBridge</text>
<text x="728" y="272" text-anchor="middle" font-size="5.5" fill="#6D28D9">sdp·linear</text>
<text x="728" y="281" text-anchor="middle" font-size="5.5" fill="#6D28D9">prob·cos·loc</text>
<line x1="752" y1="270" x2="760" y2="270" stroke="#2563EB" stroke-width="1.4" marker-end="url(#ab)"/>
<!-- Decoder: 3 options -->
<rect x="760" y="253" width="48" height="34" rx="4" fill="#93C5FD" stroke="#2563EB" stroke-width="1.2"/>
<text x="784" y="264" text-anchor="middle" font-size="7" font-weight="700" fill="#1E3A5F">Decoder</text>
<text x="784" y="273" text-anchor="middle" font-size="5.5" fill="#1E3A5F">LSTM·GRU</text>
<text x="784" y="282" text-anchor="middle" font-size="5.5" fill="#1E3A5F">Transformer</text>
<line x1="808" y1="270" x2="816" y2="270" stroke="#2563EB" stroke-width="1.4" marker-end="url(#ab)"/>
<rect x="816" y="253" width="32" height="34" rx="4" fill="white" stroke="#93C5FD" stroke-width="1"/>
<text x="832" y="267" text-anchor="middle" font-size="7" fill="#374151">Linear</text>
<text x="832" y="278" text-anchor="middle" font-size="5.5" fill="#6B7280">head</text>
<line x1="848" y1="270" x2="856" y2="270" stroke="#2563EB" stroke-width="1.4" marker-end="url(#ab)"/>
<rect x="856" y="253" width="96" height="34" rx="4" fill="white" stroke="#93C5FD" stroke-width="1"/>
<text x="904" y="265" text-anchor="middle" font-size="7" font-weight="600" fill="#374151">Forecast</text>
<text x="904" y="275" text-anchor="middle" font-size="6" fill="#6B7280">B × H × C</text>
<text x="904" y="284" text-anchor="middle" font-size="5.5" fill="#2563EB">RevIN⁻¹</text>

<!-- ═══ Mode 2: encoder_only  (y=330, h=96, center=384) ═══ -->
<rect x="488" y="330" width="472" height="96" rx="6" fill="#F0FDF4" stroke="#16A34A" stroke-width="1.5"/>
<rect x="488" y="330" width="472" height="26" rx="6" fill="#16A34A"/>
<rect x="488" y="348" width="472" height="8" fill="#16A34A"/>
<text x="724" y="346" text-anchor="middle" font-size="9.5" font-weight="700" fill="white" letter-spacing="0.5">encoder_only</text>
<!-- flow center_y=384, box_top=367 -->
<rect x="496" y="367" width="36" height="34" rx="4" fill="white" stroke="#86EFAC" stroke-width="1"/>
<text x="514" y="381" text-anchor="middle" font-size="7" font-weight="600" fill="#374151">Input</text>
<text x="514" y="392" text-anchor="middle" font-size="5.5" fill="#6B7280">B,L,C</text>
<line x1="532" y1="384" x2="540" y2="384" stroke="#16A34A" stroke-width="1.4" marker-end="url(#ag)"/>
<rect x="540" y="367" width="38" height="34" rx="4" fill="#DCFCE7" stroke="#16A34A" stroke-width="1"/>
<text x="559" y="381" text-anchor="middle" font-size="7" font-weight="600" fill="#14532D">RevIN</text>
<text x="559" y="392" text-anchor="middle" font-size="5.5" fill="#374151">searched</text>
<line x1="578" y1="384" x2="586" y2="384" stroke="#16A34A" stroke-width="1.4" marker-end="url(#ag)"/>
<rect x="586" y="363" width="54" height="42" rx="4" fill="#BBF7D0" stroke="#16A34A" stroke-width="1.5"/>
<text x="613" y="378" text-anchor="middle" font-size="7" font-weight="700" fill="#14532D">Backbone</text>
<text x="613" y="388" text-anchor="middle" font-size="6.5" fill="#374151">DARTS cells</text>
<text x="613" y="397" text-anchor="middle" font-size="5.5" fill="#6B7280">K layers</text>
<line x1="640" y1="384" x2="648" y2="384" stroke="#16A34A" stroke-width="1.4" marker-end="url(#ag)"/>
<!-- Encoder: 4 options -->
<rect x="648" y="367" width="48" height="34" rx="4" fill="#86EFAC" stroke="#16A34A" stroke-width="1.2"/>
<text x="672" y="378" text-anchor="middle" font-size="7" font-weight="700" fill="#14532D">Encoder</text>
<text x="672" y="387" text-anchor="middle" font-size="5.5" fill="#374151">LSTM·GRU</text>
<text x="672" y="396" text-anchor="middle" font-size="5.5" fill="#374151">Tfm·Patch</text>
<line x1="696" y1="384" x2="704" y2="384" stroke="#16A34A" stroke-width="1.4" marker-end="url(#ag)"/>
<!-- Pool -->>
<rect x="704" y="367" width="52" height="34" rx="4" fill="#4ADE80" stroke="#16A34A" stroke-width="1.5"/>
<text x="730" y="379" text-anchor="middle" font-size="7" font-weight="700" fill="white">Pool</text>
<text x="730" y="389" text-anchor="middle" font-size="5.5" fill="white">mean+last token</text>
<line x1="756" y1="384" x2="764" y2="384" stroke="#16A34A" stroke-width="1.4" marker-end="url(#ag)"/>
<!-- no decoder -->
<rect x="764" y="367" width="44" height="34" rx="4" fill="#F0FDF4" stroke="#BBF7D0" stroke-width="0.8" stroke-dasharray="3,2"/>
<line x1="766" y1="369" x2="806" y2="399" stroke="#86EFAC" stroke-width="0.8"/>
<line x1="806" y1="369" x2="766" y2="399" stroke="#86EFAC" stroke-width="0.8"/>
<text x="786" y="387" text-anchor="middle" font-size="5.5" fill="#15803D">no dec</text>
<line x1="808" y1="384" x2="816" y2="384" stroke="#16A34A" stroke-width="1.4" marker-end="url(#ag)"/>
<rect x="816" y="367" width="46" height="34" rx="4" fill="white" stroke="#86EFAC" stroke-width="1"/>
<text x="839" y="379" text-anchor="middle" font-size="7" fill="#374151">MLP</text>
<text x="839" y="389" text-anchor="middle" font-size="5.5" fill="#374151">latent→H×C</text>
<text x="839" y="398" text-anchor="middle" font-size="5.5" fill="#6B7280">reshape</text>
<line x1="862" y1="384" x2="870" y2="384" stroke="#16A34A" stroke-width="1.4" marker-end="url(#ag)"/>
<rect x="870" y="367" width="82" height="34" rx="4" fill="white" stroke="#86EFAC" stroke-width="1"/>
<text x="911" y="381" text-anchor="middle" font-size="7" font-weight="600" fill="#374151">Forecast</text>
<text x="911" y="391" text-anchor="middle" font-size="6" fill="#6B7280">B × H × C</text>
<text x="911" y="399" text-anchor="middle" font-size="5.5" fill="#16A34A">RevIN⁻¹</text>

<!-- ═══ Mode 3: decoder_only  (y=434, h=96, center=488) ═══ -->
<rect x="488" y="434" width="472" height="96" rx="6" fill="#F5F3FF" stroke="#7C3AED" stroke-width="1.5"/>
<rect x="488" y="434" width="472" height="26" rx="6" fill="#7C3AED"/>
<rect x="488" y="452" width="472" height="8" fill="#7C3AED"/>
<text x="724" y="450" text-anchor="middle" font-size="9.5" font-weight="700" fill="white" letter-spacing="0.5">decoder_only</text>
<!-- flow center_y=488, box_top=471 -->
<rect x="496" y="471" width="36" height="34" rx="4" fill="white" stroke="#C4B5FD" stroke-width="1"/>
<text x="514" y="485" text-anchor="middle" font-size="7" font-weight="600" fill="#374151">Input</text>
<text x="514" y="496" text-anchor="middle" font-size="5.5" fill="#6B7280">B,L,C</text>
<line x1="532" y1="488" x2="540" y2="488" stroke="#7C3AED" stroke-width="1.4" marker-end="url(#ap)"/>
<rect x="540" y="471" width="38" height="34" rx="4" fill="#EDE9FE" stroke="#7C3AED" stroke-width="1"/>
<text x="559" y="485" text-anchor="middle" font-size="7" font-weight="600" fill="#4C1D95">RevIN</text>
<text x="559" y="496" text-anchor="middle" font-size="5.5" fill="#374151">searched</text>
<line x1="578" y1="488" x2="586" y2="488" stroke="#7C3AED" stroke-width="1.4" marker-end="url(#ap)"/>
<rect x="586" y="467" width="54" height="42" rx="4" fill="#DDD6FE" stroke="#7C3AED" stroke-width="1.5"/>
<text x="613" y="482" text-anchor="middle" font-size="7" font-weight="700" fill="#4C1D95">Backbone</text>
<text x="613" y="492" text-anchor="middle" font-size="6.5" fill="#374151">DARTS cells</text>
<text x="613" y="501" text-anchor="middle" font-size="5.5" fill="#6B7280">K layers</text>
<line x1="640" y1="488" x2="648" y2="488" stroke="#7C3AED" stroke-width="1.4" marker-end="url(#ap)"/>
<!-- no encoder -->
<rect x="648" y="471" width="44" height="34" rx="4" fill="#F5F3FF" stroke="#DDD6FE" stroke-width="0.8" stroke-dasharray="3,2"/>
<line x1="650" y1="473" x2="690" y2="503" stroke="#C4B5FD" stroke-width="0.8"/>
<line x1="690" y1="473" x2="650" y2="503" stroke="#C4B5FD" stroke-width="0.8"/>
<text x="670" y="491" text-anchor="middle" font-size="5.5" fill="#A78BFA">no enc</text>
<line x1="692" y1="488" x2="700" y2="488" stroke="#7C3AED" stroke-width="1.4" marker-end="url(#ap)"/>
<!-- Decoder: 3 options -->
<rect x="700" y="471" width="48" height="34" rx="4" fill="#C4B5FD" stroke="#7C3AED" stroke-width="1.2"/>
<text x="724" y="482" text-anchor="middle" font-size="7" font-weight="700" fill="#4C1D95">Decoder</text>
<text x="724" y="491" text-anchor="middle" font-size="5.5" fill="#1E1B4B">LSTM·GRU</text>
<text x="724" y="500" text-anchor="middle" font-size="5.5" fill="#1E1B4B">Transformer</text>
<line x1="748" y1="488" x2="756" y2="488" stroke="#7C3AED" stroke-width="1.4" marker-end="url(#ap)"/>
<!-- last token -->
<rect x="756" y="471" width="52" height="34" rx="4" fill="#8B5CF6" stroke="#7C3AED" stroke-width="1.5"/>
<text x="782" y="483" text-anchor="middle" font-size="6.5" font-weight="700" fill="white">x[:,−1,:]</text>
<text x="782" y="493" text-anchor="middle" font-size="5.5" fill="#EDE9FE">last hidden</text>
<text x="782" y="502" text-anchor="middle" font-size="5.5" fill="#EDE9FE">state</text>
<line x1="808" y1="488" x2="816" y2="488" stroke="#7C3AED" stroke-width="1.4" marker-end="url(#ap)"/>
<rect x="816" y="471" width="46" height="34" rx="4" fill="white" stroke="#C4B5FD" stroke-width="1"/>
<text x="839" y="483" text-anchor="middle" font-size="7" fill="#374151">MLP</text>
<text x="839" y="493" text-anchor="middle" font-size="5.5" fill="#374151">hidden→H×C</text>
<text x="839" y="502" text-anchor="middle" font-size="5.5" fill="#6B7280">reshape</text>
<line x1="862" y1="488" x2="870" y2="488" stroke="#7C3AED" stroke-width="1.4" marker-end="url(#ap)"/>
<rect x="870" y="471" width="82" height="34" rx="4" fill="white" stroke="#C4B5FD" stroke-width="1"/>
<text x="911" y="485" text-anchor="middle" font-size="7" font-weight="600" fill="#374151">Forecast</text>
<text x="911" y="495" text-anchor="middle" font-size="6" fill="#6B7280">B × H × C</text>
<text x="911" y="503" text-anchor="middle" font-size="5.5" fill="#7C3AED">RevIN⁻¹</text>

<!-- ═══ Mode 4: mamba  (y=538, h=106, center=592) ═══ -->
<rect x="488" y="538" width="472" height="106" rx="6" fill="#ECFEFF" stroke="#0891B2" stroke-width="1.5"/>
<rect x="488" y="538" width="472" height="26" rx="6" fill="#0891B2"/>
<rect x="488" y="556" width="472" height="8" fill="#0891B2"/>
<text x="724" y="554" text-anchor="middle" font-size="9.5" font-weight="700" fill="white" letter-spacing="0.5">mamba</text>
<!-- flow center_y=592, box_top=575 -->
<rect x="496" y="575" width="36" height="34" rx="4" fill="white" stroke="#67E8F9" stroke-width="1"/>
<text x="514" y="589" text-anchor="middle" font-size="7" font-weight="600" fill="#374151">Input</text>
<text x="514" y="600" text-anchor="middle" font-size="5.5" fill="#6B7280">B,L,C</text>
<line x1="532" y1="592" x2="540" y2="592" stroke="#0891B2" stroke-width="1.4" marker-end="url(#am)"/>
<rect x="540" y="575" width="38" height="34" rx="4" fill="#CFFAFE" stroke="#0891B2" stroke-width="1"/>
<text x="559" y="589" text-anchor="middle" font-size="7" font-weight="600" fill="#164E63">RevIN</text>
<text x="559" y="600" text-anchor="middle" font-size="5.5" fill="#374151">searched</text>
<line x1="578" y1="592" x2="586" y2="592" stroke="#0891B2" stroke-width="1.4" marker-end="url(#am)"/>
<rect x="586" y="571" width="54" height="42" rx="4" fill="#A5F3FC" stroke="#0891B2" stroke-width="1.5"/>
<text x="613" y="586" text-anchor="middle" font-size="7" font-weight="700" fill="#164E63">Backbone</text>
<text x="613" y="596" text-anchor="middle" font-size="6.5" fill="#374151">DARTS cells</text>
<text x="613" y="605" text-anchor="middle" font-size="5.5" fill="#6B7280">K layers</text>
<line x1="640" y1="592" x2="648" y2="592" stroke="#0891B2" stroke-width="1.4" marker-end="url(#am)"/>
<!-- MambaBranch — key differentiator -->
<rect x="648" y="571" width="138" height="42" rx="5" fill="#06B6D4" stroke="#0891B2" stroke-width="2"/>
<text x="717" y="587" text-anchor="middle" font-size="8.5" font-weight="800" fill="white">MambaBranch</text>
<text x="717" y="598" text-anchor="middle" font-size="6.5" fill="#CFFAFE">Selective SSM  ×  num_layers</text>
<text x="717" y="607" text-anchor="middle" font-size="5.5" fill="#E0F2FE">d_model · d_state · d_conv</text>
<line x1="786" y1="592" x2="794" y2="592" stroke="#0891B2" stroke-width="1.4" marker-end="url(#am)"/>
<!-- no enc/dec -->
<rect x="794" y="575" width="44" height="34" rx="4" fill="#ECFEFF" stroke="#67E8F9" stroke-width="0.8" stroke-dasharray="3,2"/>
<line x1="796" y1="577" x2="836" y2="607" stroke="#67E8F9" stroke-width="0.8"/>
<line x1="836" y1="577" x2="796" y2="607" stroke="#67E8F9" stroke-width="0.8"/>
<text x="816" y="591" text-anchor="middle" font-size="5.5" fill="#0891B2">no enc</text>
<text x="816" y="600" text-anchor="middle" font-size="5.5" fill="#0891B2">/dec</text>
<line x1="838" y1="592" x2="846" y2="592" stroke="#0891B2" stroke-width="1.4" marker-end="url(#am)"/>
<rect x="846" y="575" width="36" height="34" rx="4" fill="white" stroke="#67E8F9" stroke-width="1"/>
<text x="864" y="587" text-anchor="middle" font-size="7" fill="#374151">Linear</text>
<text x="864" y="598" text-anchor="middle" font-size="5.5" fill="#6B7280">proj</text>
<line x1="882" y1="592" x2="890" y2="592" stroke="#0891B2" stroke-width="1.4" marker-end="url(#am)"/>
<rect x="890" y="575" width="62" height="34" rx="4" fill="white" stroke="#67E8F9" stroke-width="1"/>
<text x="921" y="589" text-anchor="middle" font-size="7" font-weight="600" fill="#374151">Forecast</text>
<text x="921" y="599" text-anchor="middle" font-size="6" fill="#6B7280">B × H × C</text>
<text x="921" y="607" text-anchor="middle" font-size="5.5" fill="#0891B2">RevIN⁻¹</text>

<!-- ── Bottom legend strip ── -->
<rect x="488" y="654" width="472" height="40" rx="4" fill="#F9FAFB" stroke="#E5E7EB" stroke-width="0.8"/>
<text x="724" y="665" text-anchor="middle" font-size="6.5" font-weight="700" fill="#374151">Shared:  RevIN (searched)  ·  Backbone DARTS cells  ·  RevIN⁻¹  ·  AMP  ·  bilevel α/w update</text>
<text x="724" y="675" text-anchor="middle" font-size="6.5" fill="#6B7280">Encoder α: {LSTM, GRU, Transformer, PatchTST}   Decoder α: {LSTM, GRU, Transformer}   mamba bypasses enc/dec entirely</text>
<text x="724" y="685" text-anchor="middle" font-size="6.5" fill="#6B7280">AttentionBridge α: {none, sdp, linear, probsparse, cosine, local}  (only active in encoder_decoder mode)</text>

</svg>
