<svg xmlns="http://www.w3.org/2000/svg" viewBox="0 0 980 580" width="980" height="580"
     font-family="'Helvetica Neue', Helvetica, Arial, sans-serif">
<defs>
  <marker id="a"  viewBox="0 0 8 8" refX="7" refY="4" markerWidth="5" markerHeight="5" orient="auto"><path d="M0,0 L8,4 L0,8 Z" fill="#374151"/></marker>
  <marker id="ab" viewBox="0 0 8 8" refX="7" refY="4" markerWidth="5" markerHeight="5" orient="auto"><path d="M0,0 L8,4 L0,8 Z" fill="#2563EB"/></marker>
  <marker id="ag" viewBox="0 0 8 8" refX="7" refY="4" markerWidth="5" markerHeight="5" orient="auto"><path d="M0,0 L8,4 L0,8 Z" fill="#16A34A"/></marker>
  <marker id="ap" viewBox="0 0 8 8" refX="7" refY="4" markerWidth="5" markerHeight="5" orient="auto"><path d="M0,0 L8,4 L0,8 Z" fill="#7C3AED"/></marker>
  <marker id="ao" viewBox="0 0 8 8" refX="7" refY="4" markerWidth="5" markerHeight="5" orient="auto"><path d="M0,0 L8,4 L0,8 Z" fill="#EA580C"/></marker>
  <filter id="sh"><feDropShadow dx="0" dy="1" stdDeviation="2.5" flood-color="#00000015"/></filter>
  <filter id="glow"><feGaussianBlur stdDeviation="2.5" result="c"/><feMerge><feMergeNode in="c"/><feMergeNode in="SourceGraphic"/></feMerge></filter>
</defs>

<rect width="980" height="580" fill="#F9FAFB"/>

<!-- ══════════════════════════════════════════════════════════════════
     PANEL A  — Multi-fidelity Pipeline
     ══════════════════════════════════════════════════════════════════ -->
<rect x="10" y="8" width="960" height="168" rx="8" fill="white" stroke="#E5E7EB" stroke-width="1" filter="url(#sh)"/>
<text x="490" y="27" text-anchor="middle" font-size="10.5" font-weight="700" letter-spacing="1.2" fill="#111827">(a)  MULTI-FIDELITY SEARCH PIPELINE</text>

<!-- ── Phase 1 ── Zero-cost Scoring -->
<rect x="20" y="35" width="163" height="132" rx="6" fill="#EFF6FF" stroke="#93C5FD" stroke-width="1.2"/>
<rect x="20" y="35" width="163" height="28" rx="6" fill="#2563EB"/>
<rect x="20" y="56" width="163" height="7" fill="#2563EB"/>
<circle cx="46" cy="49" r="12" fill="white" opacity="0.2"/>
<text x="46" y="53" text-anchor="middle" font-size="12" font-weight="900" fill="white">1</text>
<text x="115" y="52" text-anchor="middle" font-size="9" font-weight="700" fill="white">Zero-cost Scoring</text>

<!-- candidate dot grid (4×3) -->
<circle cx="44"  cy="81" r="4.5" fill="#60A5FA"/><circle cx="60"  cy="77" r="4.5" fill="#93C5FD"/>
<circle cx="76"  cy="81" r="4.5" fill="#60A5FA"/><circle cx="92"  cy="77" r="4.5" fill="#60A5FA"/>
<circle cx="44"  cy="97" r="4.5" fill="#93C5FD"/><circle cx="60"  cy="97" r="4.5" fill="#60A5FA"/>
<circle cx="76"  cy="97" r="4.5" fill="#93C5FD"/><circle cx="92"  cy="97" r="4.5" fill="#60A5FA"/>
<circle cx="44" cy="113" r="4.5" fill="#60A5FA"/><circle cx="60" cy="113" r="4.5" fill="#93C5FD"/>
<circle cx="76" cy="113" r="4.5" fill="#60A5FA"/><circle cx="92" cy="113" r="4.5" fill="#93C5FD"/>
<!-- score bars beside dots (mini horizontal) -->
<text x="108" y="84" font-size="6.5" fill="#374151">NTK ████▌</text>
<text x="108" y="100" font-size="6.5" fill="#374151">SNIP ███░░</text>
<text x="108" y="116" font-size="6.5" fill="#374151">Synflow ██░</text>
<text x="101" y="137" text-anchor="middle" font-size="7" fill="#374151">N candidates</text>
<text x="101" y="149" text-anchor="middle" font-size="6.5" fill="#6B7280">proxy eval only</text>
<text x="101" y="161" text-anchor="middle" font-size="6.5" fill="#6B7280" font-style="italic">no training needed</text>

<!-- arrow -->
<line x1="183" y1="101" x2="200" y2="101" stroke="#374151" stroke-width="1.8" marker-end="url(#a)"/>

<!-- ── Phase 2 ── Select top-k -->
<rect x="201" y="35" width="140" height="132" rx="6" fill="#EFF6FF" stroke="#93C5FD" stroke-width="1.2"/>
<rect x="201" y="35" width="140" height="28" rx="6" fill="#2563EB"/>
<rect x="201" y="56" width="140" height="7" fill="#2563EB"/>
<circle cx="226" cy="49" r="12" fill="white" opacity="0.2"/>
<text x="226" y="53" text-anchor="middle" font-size="12" font-weight="900" fill="white">2</text>
<text x="290" y="52" text-anchor="middle" font-size="9" font-weight="700" fill="white">Select Top-k</text>

<!-- funnel -->
<polygon points="213,67 329,67 313,122 229,122" fill="#DBEAFE" stroke="#93C5FD" stroke-width="1"/>
<!-- faded dots at top -->
<circle cx="228" cy="76" r="3.5" fill="#93C5FD" opacity="0.4"/>
<circle cx="243" cy="73" r="3.5" fill="#93C5FD" opacity="0.4"/>
<circle cx="258" cy="77" r="3.5" fill="#93C5FD" opacity="0.4"/>
<circle cx="273" cy="73" r="3.5" fill="#93C5FD" opacity="0.4"/>
<circle cx="288" cy="77" r="3.5" fill="#93C5FD" opacity="0.4"/>
<circle cx="303" cy="73" r="3.5" fill="#93C5FD" opacity="0.3"/>
<circle cx="318" cy="77" r="3.5" fill="#93C5FD" opacity="0.2"/>
<!-- bright dots at bottom = top-k -->
<circle cx="247" cy="115" r="5.5" fill="#2563EB" filter="url(#glow)"/>
<circle cx="272" cy="118" r="5.5" fill="#2563EB" filter="url(#glow)"/>
<circle cx="297" cy="115" r="5.5" fill="#2563EB" filter="url(#glow)"/>
<text x="271" y="138" text-anchor="middle" font-size="7.5" fill="#374151">N  →  top-k</text>
<text x="271" y="153" text-anchor="middle" font-size="6.5" fill="#6B7280">by proxy score</text>

<!-- arrow -->
<line x1="341" y1="101" x2="358" y2="101" stroke="#374151" stroke-width="1.8" marker-end="url(#a)"/>

<!-- ── Phase 3 ── Bilevel DARTS -->
<rect x="359" y="35" width="158" height="132" rx="6" fill="#EFF6FF" stroke="#93C5FD" stroke-width="1.2"/>
<rect x="359" y="35" width="158" height="28" rx="6" fill="#2563EB"/>
<rect x="359" y="56" width="158" height="7" fill="#2563EB"/>
<circle cx="384" cy="49" r="12" fill="white" opacity="0.2"/>
<text x="384" y="53" text-anchor="middle" font-size="12" font-weight="900" fill="white">3</text>
<text x="459" y="52" text-anchor="middle" font-size="9" font-weight="700" fill="white">Bilevel DARTS</text>

<!-- bilevel diagram: two concentric ovals -->
<ellipse cx="438" cy="100" rx="60" ry="36" fill="none" stroke="#93C5FD" stroke-width="1.2" stroke-dasharray="4,3"/>
<ellipse cx="438" cy="100" rx="36" ry="22" fill="#DBEAFE" stroke="#2563EB" stroke-width="1.3"/>
<text x="438" y="95"  text-anchor="middle" font-size="8" font-weight="700" fill="#1E3A5F">w*</text>
<text x="438" y="107" text-anchor="middle" font-size="7"   fill="#374151">∂L_tr/∂w</text>
<!-- arch update loop arrow -->
<path d="M 392,72 A 48,30 0 0 1 484,72" fill="none" stroke="#93C5FD" stroke-width="1.2" marker-end="url(#ab)"/>
<text x="438" y="68"  text-anchor="middle" font-size="7" fill="#2563EB" font-weight="600">∂L_val/∂α</text>
<text x="438" y="144" text-anchor="middle" font-size="7" fill="#374151">short search / cand.</text>
<text x="438" y="158" text-anchor="middle" font-size="6.5" fill="#6B7280" font-style="italic">temp. annealing</text>

<!-- arrow -->
<line x1="517" y1="101" x2="534" y2="101" stroke="#374151" stroke-width="1.8" marker-end="url(#a)"/>

<!-- ── Phase 4 ── Derivation -->
<rect x="535" y="35" width="150" height="132" rx="6" fill="#FFF7ED" stroke="#FED7AA" stroke-width="1.2"/>
<rect x="535" y="35" width="150" height="28" rx="6" fill="#EA580C"/>
<rect x="535" y="56" width="150" height="7" fill="#EA580C"/>
<circle cx="560" cy="49" r="12" fill="white" opacity="0.2"/>
<text x="560" y="53" text-anchor="middle" font-size="12" font-weight="900" fill="white">4</text>
<text x="623" y="52" text-anchor="middle" font-size="9" font-weight="700" fill="white">Derivation</text>

<!-- mixed → discrete  visual -->
<!-- mixed block: stacked transparent ops -->
<rect x="548" y="68" width="46" height="20" rx="3" fill="#BFDBFE" opacity="0.45"/>
<rect x="548" y="74" width="46" height="20" rx="3" fill="#BBF7D0" opacity="0.45"/>
<rect x="548" y="80" width="46" height="20" rx="3" fill="#DDD6FE" opacity="0.45"/>
<rect x="548" y="86" width="46" height="20" rx="3" fill="#FDE68A" opacity="0.45"/>
<text x="571" y="100" text-anchor="middle" font-size="7" fill="#374151" font-weight="600">Σ αᵢ·opᵢ</text>

<!-- argmax arrow -->
<path d="M 596,89 L 614,89" stroke="#EA580C" stroke-width="1.8" marker-end="url(#ao)"/>
<text x="605" y="82" text-anchor="middle" font-size="6.5" fill="#EA580C" font-weight="700">argmax</text>

<!-- discrete block -->
<rect x="614" y="72" width="46" height="34" rx="3" fill="#FED7AA" stroke="#EA580C" stroke-width="1.5"/>
<text x="637" y="87" text-anchor="middle" font-size="9" fill="#7C2D12" font-weight="800">op★</text>
<text x="637" y="100" text-anchor="middle" font-size="6.5" fill="#9A3412">discrete</text>

<!-- winner medal (circle + checkmark) -->
<circle cx="610" cy="128" r="13" fill="#FEF3C7" stroke="#D97706" stroke-width="1.5"/>
<text x="610" y="134" text-anchor="middle" font-size="14" fill="#D97706">★</text>
<text x="610" y="155" text-anchor="middle" font-size="7" fill="#374151">best candidate</text>
<text x="610" y="163" text-anchor="middle" font-size="6.5" fill="#6B7280" font-style="italic">by val. loss</text>

<!-- arrow -->
<line x1="685" y1="101" x2="702" y2="101" stroke="#374151" stroke-width="1.8" marker-end="url(#a)"/>

<!-- ── Phase 5 ── Final Training -->
<rect x="703" y="35" width="259" height="132" rx="6" fill="#FFF7ED" stroke="#FED7AA" stroke-width="1.2"/>
<rect x="703" y="35" width="259" height="28" rx="6" fill="#EA580C"/>
<rect x="703" y="56" width="259" height="7" fill="#EA580C"/>
<circle cx="728" cy="49" r="12" fill="white" opacity="0.2"/>
<text x="728" y="53" text-anchor="middle" font-size="12" font-weight="900" fill="white">5</text>
<text x="820" y="52" text-anchor="middle" font-size="9" font-weight="700" fill="white">Full Final Training</text>

<!-- loss curves -->
<!-- axis -->
<line x1="716" y1="130" x2="953" y2="130" stroke="#D1D5DB" stroke-width="0.8"/>
<line x1="716" y1="70" x2="716" y2="130" stroke="#D1D5DB" stroke-width="0.8"/>
<text x="712" y="73" font-size="6" fill="#9CA3AF" text-anchor="end">loss</text>
<!-- train curve (blue, steep drop) -->
<path d="M716,110 C730,90 750,72 780,67 S840,62 880,60 S930,59 953,58.5"
      fill="none" stroke="#2563EB" stroke-width="2" stroke-linecap="round"/>
<!-- val curve (green dashed) -->
<path d="M716,114 C730,98 750,82 780,76 S840,72 880,70.5 S930,70 953,69.8"
      fill="none" stroke="#16A34A" stroke-width="1.5" stroke-dasharray="4,2" stroke-linecap="round"/>
<!-- SWA marker: vertical dashed -->
<line x1="888" y1="62" x2="888" y2="130" stroke="#EA580C" stroke-width="1" stroke-dasharray="3,2"/>
<text x="889" y="76" font-size="6.5" fill="#EA580C" font-weight="600">SWA</text>
<!-- legend -->
<rect x="717" y="136" width="8" height="4" rx="1" fill="#2563EB"/>
<text x="728" y="141" font-size="6.5" fill="#374151">train</text>
<line x1="750" y1="138" x2="762" y2="138" stroke="#16A34A" stroke-width="1.5" stroke-dasharray="4,2"/>
<text x="765" y="141" font-size="6.5" fill="#374151">val</text>
<text x="800" y="141" font-size="6.5" fill="#374151">AdamW · OneCycle · AMP</text>
<text x="953" y="133" font-size="6" fill="#9CA3AF" text-anchor="end">epoch</text>
<text x="834" y="162" text-anchor="middle" font-size="6.5" fill="#9A3412" font-style="italic">early stopping · best model by SWA val. loss</text>


<!-- ══════════════════════════════════════════════════════════════════
     PANEL B  — DARTS Cell DAG
     ══════════════════════════════════════════════════════════════════ -->
<rect x="10" y="186" width="458" height="386" rx="8" fill="white" stroke="#E5E7EB" stroke-width="1" filter="url(#sh)"/>
<text x="239" y="206" text-anchor="middle" font-size="10.5" font-weight="700" letter-spacing="1.2" fill="#111827">(b)  DARTS CELL — MIXED-OPERATION DAG</text>

<!--  Left half: SEARCH (continuous)  -->
<text x="108" y="226" text-anchor="middle" font-size="8" fill="#6B7280" letter-spacing="0.8" font-weight="600">SEARCH  (continuous)</text>

<!-- ── Stacked / blended edges (showing superposition) ── -->
<!-- c_in → h1 (upper path): multiple faded ops + one dominant -->
<path d="M83,370 Q104,318 122,302" fill="none" stroke="#93C5FD" stroke-width="9" opacity="0.18" stroke-linecap="round"/>
<path d="M83,373 Q104,323 122,307" fill="none" stroke="#6EE7B7" stroke-width="7" opacity="0.2"  stroke-linecap="round"/>
<path d="M83,376 Q104,328 122,312" fill="none" stroke="#C4B5FD" stroke-width="5" opacity="0.2"  stroke-linecap="round"/>
<path d="M83,378 Q104,332 122,315" fill="none" stroke="#FDE68A" stroke-width="3" opacity="0.2"  stroke-linecap="round"/>
<path d="M83,374 Q104,324 122,308" fill="none" stroke="#2563EB" stroke-width="2.2" stroke-linecap="round" marker-end="url(#ab)"/>

<!-- c_in → h2 (lower path) -->
<path d="M83,390 Q104,442 122,458" fill="none" stroke="#93C5FD" stroke-width="9" opacity="0.18" stroke-linecap="round"/>
<path d="M83,393 Q104,447 122,463" fill="none" stroke="#6EE7B7" stroke-width="7" opacity="0.2"  stroke-linecap="round"/>
<path d="M83,396 Q104,452 122,468" fill="none" stroke="#C4B5FD" stroke-width="5" opacity="0.2"  stroke-linecap="round"/>
<path d="M83,391 Q104,443 122,459" fill="none" stroke="#2563EB" stroke-width="2.2" stroke-linecap="round" marker-end="url(#ab)"/>

<!-- h1 → c_out -->
<path d="M147,291 Q172,322 184,362" fill="none" stroke="#93C5FD" stroke-width="9" opacity="0.18" stroke-linecap="round"/>
<path d="M150,292 Q175,325 187,365" fill="none" stroke="#6EE7B7" stroke-width="7" opacity="0.2"  stroke-linecap="round"/>
<path d="M153,293 Q178,328 190,368" fill="none" stroke="#C4B5FD" stroke-width="5" opacity="0.2"  stroke-linecap="round"/>
<path d="M149,292 Q174,323 186,363" fill="none" stroke="#2563EB" stroke-width="2.2" stroke-linecap="round" marker-end="url(#ab)"/>

<!-- h2 → c_out -->
<path d="M147,469 Q172,438 184,398" fill="none" stroke="#93C5FD" stroke-width="9" opacity="0.18" stroke-linecap="round"/>
<path d="M150,468 Q175,435 187,395" fill="none" stroke="#6EE7B7" stroke-width="7" opacity="0.2"  stroke-linecap="round"/>
<path d="M153,467 Q178,432 190,392" fill="none" stroke="#C4B5FD" stroke-width="5" opacity="0.2"  stroke-linecap="round"/>
<path d="M149,468 Q174,436 186,396" fill="none" stroke="#2563EB" stroke-width="2.2" stroke-linecap="round" marker-end="url(#ab)"/>

<!-- ── Weight bar callout on c_in→h1 edge ── -->
<rect x="65" y="318" width="42" height="54" rx="3" fill="white" stroke="#DBEAFE" stroke-width="1"/>
<!-- bar chart of α weights -->
<rect x="68" y="321" width="18" height="7" rx="1" fill="#2563EB"/>
<rect x="68" y="331" width="12" height="7" rx="1" fill="#16A34A"/>
<rect x="68" y="341" width="7"  height="7" rx="1" fill="#7C3AED"/>
<rect x="68" y="351" width="4"  height="7" rx="1" fill="#FCD34D"/>
<text x="88" y="328" font-size="5.5" fill="#374151">Identity</text>
<text x="88" y="338" font-size="5.5" fill="#374151">TimeConv</text>
<text x="88" y="348" font-size="5.5" fill="#374151">Fourier</text>
<text x="88" y="358" font-size="5.5" fill="#374151">GRN ···</text>
<text x="75" y="368" font-size="5.5" fill="#6B7280" text-anchor="middle">softmax(α/τ)</text>

<!-- ── Temperature indicator (left) ── -->
<rect x="30" y="345" width="9" height="35" rx="4.5" fill="none" stroke="#F97316" stroke-width="1.2"/>
<rect x="32" y="362" width="5" height="18" rx="2.5" fill="#F97316" opacity="0.7"/>
<circle cx="34.5" cy="380" r="6" fill="#F97316"/>
<text x="34" y="336" text-anchor="middle" font-size="7" fill="#F97316" font-weight="700">τ</text>
<text x="20" y="352" font-size="5.5" fill="#9CA3AF" text-anchor="end">cool</text>
<text x="20" y="373" font-size="5.5" fill="#9CA3AF" text-anchor="end">warm</text>
<text x="34" y="395" font-size="5.5" fill="#F97316" text-anchor="middle">anneal</text>

<!-- ── Cell nodes ── -->
<circle cx="70"  cy="380" r="24" fill="#DBEAFE" stroke="#2563EB" stroke-width="2.2" filter="url(#sh)"/>
<text x="70"  y="376" text-anchor="middle" font-size="10" font-weight="700" fill="#1E3A5F">c</text>
<text x="70"  y="390" text-anchor="middle" font-size="7.5" fill="#374151">k−1</text>

<circle cx="132" cy="286" r="22" fill="#DBEAFE" stroke="#2563EB" stroke-width="2" filter="url(#sh)"/>
<text x="132" y="282" text-anchor="middle" font-size="10" font-weight="700" fill="#1E3A5F">h</text>
<text x="132" y="295" text-anchor="middle" font-size="7.5" fill="#374151">1</text>

<circle cx="132" cy="474" r="22" fill="#DBEAFE" stroke="#2563EB" stroke-width="2" filter="url(#sh)"/>
<text x="132" y="470" text-anchor="middle" font-size="10" font-weight="700" fill="#1E3A5F">h</text>
<text x="132" y="483" text-anchor="middle" font-size="7.5" fill="#374151">2</text>

<circle cx="198" cy="380" r="24" fill="#DBEAFE" stroke="#2563EB" stroke-width="2.2" filter="url(#sh)"/>
<text x="198" y="376" text-anchor="middle" font-size="10" font-weight="700" fill="#1E3A5F">c</text>
<text x="198" y="390" text-anchor="middle" font-size="7.5" fill="#374151">k</text>

<!-- formula label -->
<rect x="17" y="505" width="210" height="20" rx="3" fill="#EFF6FF" stroke="#BFDBFE" stroke-width="0.8"/>
<text x="122" y="518" text-anchor="middle" font-size="8" fill="#1E3A5F" font-weight="600">o̅(x) = Σᵢ softmax(αᵢ/τ) · opᵢ(x)</text>

<!-- ────── DIVIDER ────── -->
<line x1="236" y1="218" x2="236" y2="558" stroke="#E5E7EB" stroke-width="1.2" stroke-dasharray="5,4"/>

<!-- Right half: DERIVED (discrete) -->
<text x="340" y="226" text-anchor="middle" font-size="8" fill="#EA580C" letter-spacing="0.8" font-weight="600">DERIVED  (discrete)</text>

<!-- argmax transformation arrow -->
<line x1="204" y1="380" x2="248" y2="380" stroke="#EA580C" stroke-width="2.2" marker-end="url(#ao)"/>
<rect x="205" y="365" width="44" height="13" rx="3" fill="#FFF7ED"/>
<text x="227" y="374" text-anchor="middle" font-size="6.5" fill="#EA580C" font-weight="700">argmax α</text>

<!-- ── Discrete edges (single clean colored line per op) ── -->
<path d="M284,371 Q304,326 318,310" fill="none" stroke="#EA580C" stroke-width="2.8" stroke-linecap="round" marker-end="url(#ao)"/>
<path d="M284,389 Q304,434 318,450" fill="none" stroke="#EA580C" stroke-width="2.8" stroke-linecap="round" marker-end="url(#ao)"/>
<path d="M342,283 Q368,320 380,360" fill="none" stroke="#EA580C" stroke-width="2.8" stroke-linecap="round" marker-end="url(#ao)"/>
<path d="M342,467 Q368,440 380,400" fill="none" stroke="#EA580C" stroke-width="2.8" stroke-linecap="round" marker-end="url(#ao)"/>

<!-- op* badges -->
<rect x="287" y="322" width="24" height="15" rx="3" fill="#FEF3C7" stroke="#EA580C" stroke-width="1"/>
<text x="299" y="333" text-anchor="middle" font-size="7" fill="#7C2D12" font-weight="700">op★</text>
<rect x="287" y="420" width="24" height="15" rx="3" fill="#FEF3C7" stroke="#EA580C" stroke-width="1"/>
<text x="299" y="431" text-anchor="middle" font-size="7" fill="#7C2D12" font-weight="700">op★</text>
<rect x="349" y="308" width="24" height="15" rx="3" fill="#FEF3C7" stroke="#EA580C" stroke-width="1"/>
<text x="361" y="319" text-anchor="middle" font-size="7" fill="#7C2D12" font-weight="700">op★</text>
<rect x="349" y="427" width="24" height="15" rx="3" fill="#FEF3C7" stroke="#EA580C" stroke-width="1"/>
<text x="361" y="438" text-anchor="middle" font-size="7" fill="#7C2D12" font-weight="700">op★</text>

<!-- Discrete cell nodes -->
<circle cx="270" cy="380" r="24" fill="#FEF3C7" stroke="#EA580C" stroke-width="2.2" filter="url(#sh)"/>
<text x="270" y="376" text-anchor="middle" font-size="10" font-weight="700" fill="#7C2D12">c</text>
<text x="270" y="390" text-anchor="middle" font-size="7.5" fill="#9A3412">k−1</text>

<circle cx="333" cy="270" r="22" fill="#FEF3C7" stroke="#EA580C" stroke-width="2" filter="url(#sh)"/>
<text x="333" y="266" text-anchor="middle" font-size="10" font-weight="700" fill="#7C2D12">h</text>
<text x="333" y="279" text-anchor="middle" font-size="7.5" fill="#9A3412">1</text>

<circle cx="333" cy="480" r="22" fill="#FEF3C7" stroke="#EA580C" stroke-width="2" filter="url(#sh)"/>
<text x="333" y="476" text-anchor="middle" font-size="10" font-weight="700" fill="#7C2D12">h</text>
<text x="333" y="489" text-anchor="middle" font-size="7.5" fill="#9A3412">2</text>

<circle cx="396" cy="380" r="24" fill="#FEF3C7" stroke="#EA580C" stroke-width="2.2" filter="url(#sh)"/>
<text x="396" y="376" text-anchor="middle" font-size="10" font-weight="700" fill="#7C2D12">c</text>
<text x="396" y="390" text-anchor="middle" font-size="7.5" fill="#9A3412">k</text>

<!-- discrete formula -->
<rect x="240" y="505" width="202" height="20" rx="3" fill="#FFF7ED" stroke="#FED7AA" stroke-width="0.8"/>
<text x="341" y="518" text-anchor="middle" font-size="8" fill="#7C2D12" font-weight="600">op★ = opᵢ  where  i = argmax α</text>

<!-- ── op legend bottom ── -->
<rect x="14" y="530" width="440" height="40" rx="4" fill="#F9FAFB" stroke="#E5E7EB" stroke-width="0.8"/>
<text x="234" y="543" text-anchor="middle" font-size="7" font-weight="700" fill="#374151">Candidate operations</text>
<rect x="22"  cy="549" x2="50" y="548" width="9" height="9" rx="2" fill="#2563EB"/><text x="35"  y="556" text-anchor="middle" font-size="6.5" fill="#374151">Identity</text>
<rect x="62"  y="548" width="9" height="9" rx="2" fill="#16A34A"/><text x="76"  y="556" font-size="6.5" fill="#374151">ResidualMLP</text>
<rect x="128" y="548" width="9" height="9" rx="2" fill="#7C3AED"/><text x="142" y="556" font-size="6.5" fill="#374151">TimeConv</text>
<rect x="196" y="548" width="9" height="9" rx="2" fill="#EA580C"/><text x="210" y="556" font-size="6.5" fill="#374151">TCN</text>
<rect x="238" y="548" width="9" height="9" rx="2" fill="#D97706"/><text x="252" y="556" font-size="6.5" fill="#374151">Fourier</text>
<rect x="296" y="548" width="9" height="9" rx="2" fill="#0891B2"/><text x="310" y="556" font-size="6.5" fill="#374151">GRN</text>
<text x="380" y="556" font-size="6.5" fill="#9CA3AF" font-style="italic">(Mamba excluded)</text>


<!-- ══════════════════════════════════════════════════════════════════
     PANEL C  —  Topology Modes
     ══════════════════════════════════════════════════════════════════ -->
<rect x="478" y="186" width="492" height="386" rx="8" fill="white" stroke="#E5E7EB" stroke-width="1" filter="url(#sh)"/>
<text x="724" y="206" text-anchor="middle" font-size="10.5" font-weight="700" letter-spacing="1.2" fill="#111827">(c)  TOPOLOGY MODES  ( arch_mode )</text>

<!-- ═══ Mode 1: encoder_decoder ═══ -->
<rect x="488" y="216" width="472" height="96" rx="6" fill="#EFF6FF" stroke="#2563EB" stroke-width="1.5"/>
<rect x="488" y="216" width="472" height="26" rx="6" fill="#2563EB"/>
<rect x="488" y="234" width="472" height="8" fill="#2563EB"/>
<text x="724" y="232" text-anchor="middle" font-size="9.5" font-weight="700" fill="white" letter-spacing="0.5">encoder_decoder</text>

<!-- flow blocks (y-center=270) -->
<!-- Input -->
<rect x="496" y="250" width="46" height="34" rx="4" fill="white" stroke="#93C5FD" stroke-width="1"/>
<text x="519" y="269" text-anchor="middle" font-size="7.5" font-weight="600" fill="#374151">Input</text>
<text x="519" y="280" text-anchor="middle" font-size="6"   fill="#6B7280">B,L,C</text>
<line x1="542" y1="267" x2="552" y2="267" stroke="#2563EB" stroke-width="1.4" marker-end="url(#ab)"/>

<!-- RevIN -->
<rect x="552" y="250" width="44" height="34" rx="4" fill="#DBEAFE" stroke="#2563EB" stroke-width="1"/>
<text x="574" y="265" text-anchor="middle" font-size="7.5" font-weight="600" fill="#1E3A5F">RevIN</text>
<text x="574" y="276" text-anchor="middle" font-size="6"   fill="#374151">searched</text>
<line x1="596" y1="267" x2="606" y2="267" stroke="#2563EB" stroke-width="1.4" marker-end="url(#ab)"/>

<!-- Backbone cells (wider) -->
<rect x="606" y="246" width="62" height="42" rx="4" fill="#BFDBFE" stroke="#2563EB" stroke-width="1.5"/>
<text x="637" y="262" text-anchor="middle" font-size="7.5" font-weight="700" fill="#1E3A5F">Backbone</text>
<text x="637" y="273" text-anchor="middle" font-size="7"   fill="#374151">DARTS cells</text>
<text x="637" y="282" text-anchor="middle" font-size="6"   fill="#6B7280">K layers</text>
<line x1="668" y1="267" x2="678" y2="267" stroke="#2563EB" stroke-width="1.4" marker-end="url(#ab)"/>

<!-- Encoder (searchable) -->
<rect x="678" y="250" width="50" height="34" rx="4" fill="#93C5FD" stroke="#2563EB" stroke-width="1.2"/>
<text x="703" y="264" text-anchor="middle" font-size="7.5" font-weight="700" fill="#1E3A5F">Encoder</text>
<text x="703" y="275" text-anchor="middle" font-size="6"   fill="#374151">LSTM·GRU·Tr</text>
<line x1="728" y1="267" x2="738" y2="267" stroke="#2563EB" stroke-width="1.4" marker-end="url(#ab)"/>

<!-- Decoder (searchable) -->
<rect x="738" y="250" width="50" height="34" rx="4" fill="#93C5FD" stroke="#2563EB" stroke-width="1.2"/>
<text x="763" y="264" text-anchor="middle" font-size="7.5" font-weight="700" fill="#1E3A5F">Decoder</text>
<text x="763" y="275" text-anchor="middle" font-size="6"   fill="#374151">LSTM·GRU·Tr</text>
<line x1="788" y1="267" x2="798" y2="267" stroke="#2563EB" stroke-width="1.4" marker-end="url(#ab)"/>

<!-- FC head -->
<rect x="798" y="250" width="46" height="34" rx="4" fill="white" stroke="#93C5FD" stroke-width="1"/>
<text x="821" y="264" text-anchor="middle" font-size="7.5" font-weight="600" fill="#374151">Linear</text>
<text x="821" y="275" text-anchor="middle" font-size="6"   fill="#6B7280">head</text>
<line x1="844" y1="267" x2="854" y2="267" stroke="#2563EB" stroke-width="1.4" marker-end="url(#ab)"/>

<!-- Output -->
<rect x="854" y="250" width="98" height="34" rx="4" fill="white" stroke="#93C5FD" stroke-width="1"/>
<text x="903" y="263" text-anchor="middle" font-size="7.5" font-weight="600" fill="#374151">Forecast</text>
<text x="903" y="274" text-anchor="middle" font-size="6.5" fill="#6B7280">B × H × C</text>
<text x="903" y="284" text-anchor="middle" font-size="6"   fill="#2563EB">RevIN⁻¹</text>

<!-- ═══ Mode 2: encoder_only ═══ -->
<rect x="488" y="324" width="472" height="96" rx="6" fill="#F0FDF4" stroke="#16A34A" stroke-width="1.5"/>
<rect x="488" y="324" width="472" height="26" rx="6" fill="#16A34A"/>
<rect x="488" y="342" width="472" height="8" fill="#16A34A"/>
<text x="724" y="340" text-anchor="middle" font-size="9.5" font-weight="700" fill="white" letter-spacing="0.5">encoder_only</text>

<!-- (y-center=374) -->
<rect x="496" y="358" width="46" height="34" rx="4" fill="white" stroke="#86EFAC" stroke-width="1"/>
<text x="519" y="377" text-anchor="middle" font-size="7.5" font-weight="600" fill="#374151">Input</text>
<text x="519" y="388" text-anchor="middle" font-size="6"   fill="#6B7280">B,L,C</text>
<line x1="542" y1="375" x2="552" y2="375" stroke="#16A34A" stroke-width="1.4" marker-end="url(#ag)"/>

<rect x="552" y="358" width="44" height="34" rx="4" fill="#DCFCE7" stroke="#16A34A" stroke-width="1"/>
<text x="574" y="373" text-anchor="middle" font-size="7.5" font-weight="600" fill="#14532D">RevIN</text>
<text x="574" y="384" text-anchor="middle" font-size="6"   fill="#374151">searched</text>
<line x1="596" y1="375" x2="606" y2="375" stroke="#16A34A" stroke-width="1.4" marker-end="url(#ag)"/>

<rect x="606" y="354" width="62" height="42" rx="4" fill="#BBF7D0" stroke="#16A34A" stroke-width="1.5"/>
<text x="637" y="370" text-anchor="middle" font-size="7.5" font-weight="700" fill="#14532D">Backbone</text>
<text x="637" y="381" text-anchor="middle" font-size="7"   fill="#374151">DARTS cells</text>
<text x="637" y="390" text-anchor="middle" font-size="6"   fill="#6B7280">K layers</text>
<line x1="668" y1="375" x2="678" y2="375" stroke="#16A34A" stroke-width="1.4" marker-end="url(#ag)"/>

<rect x="678" y="358" width="50" height="34" rx="4" fill="#86EFAC" stroke="#16A34A" stroke-width="1.2"/>
<text x="703" y="372" text-anchor="middle" font-size="7.5" font-weight="700" fill="#14532D">Encoder</text>
<text x="703" y="383" text-anchor="middle" font-size="6"   fill="#374151">LSTM·GRU·Tr</text>
<line x1="728" y1="375" x2="738" y2="375" stroke="#16A34A" stroke-width="1.4" marker-end="url(#ag)"/>

<!-- Pool block (enc-only) -->
<rect x="738" y="358" width="58" height="34" rx="4" fill="#4ADE80" stroke="#16A34A" stroke-width="1.5"/>
<text x="767" y="371" text-anchor="middle" font-size="7.5" font-weight="700" fill="white">Pool</text>
<text x="767" y="382" text-anchor="middle" font-size="6"   fill="white">mean+last</text>
<text x="767" y="391" text-anchor="middle" font-size="6"   fill="white">token</text>
<line x1="796" y1="375" x2="806" y2="375" stroke="#16A34A" stroke-width="1.4" marker-end="url(#ag)"/>

<!-- MLP Head -->
<rect x="806" y="358" width="50" height="34" rx="4" fill="white" stroke="#86EFAC" stroke-width="1"/>
<text x="831" y="371" text-anchor="middle" font-size="7.5" font-weight="600" fill="#374151">MLP</text>
<text x="831" y="382" text-anchor="middle" font-size="6"   fill="#374151">latent→H×C</text>
<text x="831" y="391" text-anchor="middle" font-size="6"   fill="#6B7280">reshape</text>
<line x1="856" y1="375" x2="866" y2="375" stroke="#16A34A" stroke-width="1.4" marker-end="url(#ag)"/>

<rect x="866" y="358" width="86" height="34" rx="4" fill="white" stroke="#86EFAC" stroke-width="1"/>
<text x="909" y="371" text-anchor="middle" font-size="7.5" font-weight="600" fill="#374151">Forecast</text>
<text x="909" y="382" text-anchor="middle" font-size="6.5" fill="#6B7280">B × H × C</text>
<text x="909" y="392" text-anchor="middle" font-size="6"   fill="#16A34A">RevIN⁻¹</text>

<!-- ═══ Mode 3: decoder_only ═══ -->
<rect x="488" y="432" width="472" height="96" rx="6" fill="#F5F3FF" stroke="#7C3AED" stroke-width="1.5"/>
<rect x="488" y="432" width="472" height="26" rx="6" fill="#7C3AED"/>
<rect x="488" y="450" width="472" height="8" fill="#7C3AED"/>
<text x="724" y="448" text-anchor="middle" font-size="9.5" font-weight="700" fill="white" letter-spacing="0.5">decoder_only</text>

<!-- (y-center=482) -->
<rect x="496" y="466" width="46" height="34" rx="4" fill="white" stroke="#C4B5FD" stroke-width="1"/>
<text x="519" y="485" text-anchor="middle" font-size="7.5" font-weight="600" fill="#374151">Input</text>
<text x="519" y="496" text-anchor="middle" font-size="6"   fill="#6B7280">B,L,C</text>
<line x1="542" y1="483" x2="552" y2="483" stroke="#7C3AED" stroke-width="1.4" marker-end="url(#ap)"/>

<rect x="552" y="466" width="44" height="34" rx="4" fill="#EDE9FE" stroke="#7C3AED" stroke-width="1"/>
<text x="574" y="481" text-anchor="middle" font-size="7.5" font-weight="600" fill="#4C1D95">RevIN</text>
<text x="574" y="492" text-anchor="middle" font-size="6"   fill="#374151">searched</text>
<line x1="596" y1="483" x2="606" y2="483" stroke="#7C3AED" stroke-width="1.4" marker-end="url(#ap)"/>

<rect x="606" y="462" width="62" height="42" rx="4" fill="#DDD6FE" stroke="#7C3AED" stroke-width="1.5"/>
<text x="637" y="478" text-anchor="middle" font-size="7.5" font-weight="700" fill="#4C1D95">Backbone</text>
<text x="637" y="489" text-anchor="middle" font-size="7"   fill="#374151">DARTS cells</text>
<text x="637" y="498" text-anchor="middle" font-size="6"   fill="#6B7280">K layers</text>
<line x1="668" y1="483" x2="738" y2="483" stroke="#7C3AED" stroke-width="1.4" marker-end="url(#ap)"/>

<!-- skip enc/dec: strikethrough placeholder -->
<rect x="676" y="466" width="56" height="34" rx="4" fill="#F5F3FF" stroke="#DDD6FE" stroke-width="0.8" stroke-dasharray="3,2"/>
<line x1="678" y1="468" x2="730" y2="498" stroke="#C4B5FD" stroke-width="0.8"/>
<line x1="730" y1="468" x2="678" y2="498" stroke="#C4B5FD" stroke-width="0.8"/>
<text x="703" y="487" text-anchor="middle" font-size="6" fill="#A78BFA">no enc/dec</text>

<!-- Last token -->
<rect x="738" y="466" width="58" height="34" rx="4" fill="#8B5CF6" stroke="#7C3AED" stroke-width="1.5"/>
<text x="767" y="479" text-anchor="middle" font-size="7.5" font-weight="700" fill="white">x[:,−1,:]</text>
<text x="767" y="490" text-anchor="middle" font-size="6"   fill="#EDE9FE">last token</text>
<text x="767" y="499" text-anchor="middle" font-size="6"   fill="#EDE9FE">hidden state</text>
<line x1="796" y1="483" x2="806" y2="483" stroke="#7C3AED" stroke-width="1.4" marker-end="url(#ap)"/>

<!-- MLP Head -->
<rect x="806" y="466" width="50" height="34" rx="4" fill="white" stroke="#C4B5FD" stroke-width="1"/>
<text x="831" y="479" text-anchor="middle" font-size="7.5" font-weight="600" fill="#374151">MLP</text>
<text x="831" y="490" text-anchor="middle" font-size="6"   fill="#374151">hidden→H×C</text>
<text x="831" y="499" text-anchor="middle" font-size="6"   fill="#6B7280">reshape</text>
<line x1="856" y1="483" x2="866" y2="483" stroke="#7C3AED" stroke-width="1.4" marker-end="url(#ap)"/>

<rect x="866" y="466" width="86" height="34" rx="4" fill="white" stroke="#C4B5FD" stroke-width="1"/>
<text x="909" y="479" text-anchor="middle" font-size="7.5" font-weight="600" fill="#374151">Forecast</text>
<text x="909" y="490" text-anchor="middle" font-size="6.5" fill="#6B7280">B × H × C</text>
<text x="909" y="500" text-anchor="middle" font-size="6"   fill="#7C3AED">RevIN⁻¹</text>

<!-- ── Bottom legend strip ── -->
<rect x="488" y="536" width="472" height="30" rx="4" fill="#F9FAFB" stroke="#E5E7EB" stroke-width="0.8"/>
<text x="724" y="548" text-anchor="middle" font-size="7" font-weight="700" fill="#374151">Shared:  RevIN  ·  Backbone DARTS cells  ·  RevIN⁻¹ denorm  ·  AMP training  ·  bilevel α/w update</text>
<text x="724" y="560" text-anchor="middle" font-size="7" fill="#6B7280">Encoder/Decoder type also searched via separate α  {LSTM, GRU, Transformer}</text>

</svg>
