<?xml version="1.0" encoding="UTF-8"?>
<svg xmlns="http://www.w3.org/2000/svg" viewBox="0 0 1180 1414" font-family="Helvetica, Arial, sans-serif" font-size="13" fill="#1f2430">
  <defs>
    <marker id="arrow" viewBox="0 0 10 10" refX="8.5" refY="5" markerWidth="7" markerHeight="7" orient="auto">
      <path d="M0,0 L10,5 L0,10 z" fill="#1f2430"/>
    </marker>
    <marker id="arrowGray" viewBox="0 0 10 10" refX="8.5" refY="5" markerWidth="6" markerHeight="6" orient="auto">
      <path d="M0,0 L10,5 L0,10 z" fill="#9aa1ad"/>
    </marker>
    <marker id="arrowWin" viewBox="0 0 10 10" refX="8.5" refY="5" markerWidth="7" markerHeight="7" orient="auto">
      <path d="M0,0 L10,5 L0,10 z" fill="#3f9d6b"/>
    </marker>

    <!-- soft drop shadow for cards (expanded primitives for Illustrator/Inkscape compatibility) -->
    <filter id="soft" x="-8%" y="-8%" width="116%" height="116%">
      <feGaussianBlur in="SourceAlpha" stdDeviation="4" result="blur"/>
      <feOffset in="blur" dx="0" dy="2.5" result="off"/>
      <feFlood flood-color="#1f2430" flood-opacity="0.10" result="col"/>
      <feComposite in="col" in2="off" operator="in" result="shadow"/>
      <feMerge>
        <feMergeNode in="shadow"/>
        <feMergeNode in="SourceGraphic"/>
      </feMerge>
    </filter>
    <filter id="softSm" x="-12%" y="-12%" width="124%" height="124%">
      <feGaussianBlur in="SourceAlpha" stdDeviation="2.5" result="blur"/>
      <feOffset in="blur" dx="0" dy="1.5" result="off"/>
      <feFlood flood-color="#1f2430" flood-opacity="0.10" result="col"/>
      <feComposite in="col" in2="off" operator="in" result="shadow"/>
      <feMerge>
        <feMergeNode in="shadow"/>
        <feMergeNode in="SourceGraphic"/>
      </feMerge>
    </filter>

    <!-- stage accent gradient (kept subtle) -->
    <linearGradient id="spineGrad" x1="0" y1="0" x2="0" y2="1">
      <stop offset="0" stop-color="#eef2f8"/>
      <stop offset="1" stop-color="#ffffff"/>
    </linearGradient>

    <style>
      .ttl     { font-size: 18px; font-weight: 700; letter-spacing: -0.01em; }
      .sub     { font-size: 12px; fill: #5b6472; }
      .stage   { font-size: 12px; font-weight: 700; fill: #ffffff; letter-spacing: 0.12em; }
      .stageNo { font-size: 13px; font-weight: 800; fill: #ffffff; }
      .lbl     { font-size: 12.5px; }
      .small   { font-size: 11px; fill: #5b6472; }
      .smaller { font-size: 10px; fill: #6b7280; }
      .tiny    { font-size: 9px;  fill: #7a8290; }
      .math    { font-style: italic; }
      .mono    { font-family: 'Courier New', Courier, monospace; font-size: 11px; }
      .flow    { fill: none; stroke: #1f2430; stroke-width: 1.4; }
      .flowDim { fill: none; stroke: #9aa1ad; stroke-width: 1.0; stroke-dasharray: 4 4; }
      .winFlow { fill: none; stroke: #3f9d6b; stroke-width: 2.2; }
      .axis    { stroke: #c4cad3; stroke-width: 0.7; }
      .card    { fill: #ffffff; stroke: #e3e7ee; stroke-width: 1; }
      .famHdr  { font-size: 11.5px; font-weight: 700; }
    </style>
  </defs>

  <rect x="0" y="0" width="1180" height="1414" fill="#ffffff"/>

  <!-- ===================== Title ===================== -->
  <text x="590" y="40" text-anchor="middle" class="ttl">ForeBlocks-DARTS: differentiable architecture search for multivariate time-series forecasting</text>
  <text x="590" y="62" text-anchor="middle" class="sub" font-style="italic">jointly searchable normalisation &#183; hierarchical mixed operations (16 ops &#215; 4 families) &#183; topology mode (enc-dec / enc-only / dec-only) &#183; bi-level optimisation with five regularisers</text>

  <!-- ============================================================= -->
  <!-- STAGE 1 - INPUT                                                -->
  <!-- ============================================================= -->
  <!-- stage marker -->
  <g transform="translate(440,96)">
    <rect x="0" y="0" width="300" height="30" rx="15" fill="#3e5b7a"/>
    <circle cx="20" cy="15" r="10" fill="#ffffff" opacity="0.18"/>
    <text x="20" y="19" text-anchor="middle" class="stageNo">1</text>
    <text x="160" y="19" text-anchor="middle" class="stage">INPUT</text>
  </g>

  <g transform="translate(390,140)" filter="url(#soft)">
    <rect x="0" y="0" width="400" height="150" rx="14" class="card"/>
    <text x="200" y="26" text-anchor="middle" class="lbl" font-weight="700">multivariate window</text>
    <text x="200" y="42" text-anchor="middle" class="math" fill="#5b6472">X &#8712; R^(B &#215; L &#215; C)</text>

    <!-- channel mini stack -->
    <g transform="translate(28,58)">
      <line class="axis" x1="0" y1="20" x2="150" y2="20"/>
      <polyline fill="none" stroke="#3c5b80" stroke-width="1.3"
        points="2,18 14,12 26,16 38,8 50,14 62,5 74,11 86,2 98,8 110,1 122,6 134,0 142,4 150,3"/>
      <text x="-6" y="24" text-anchor="end" class="tiny">c1</text>
      <line class="axis" x1="0" y1="50" x2="150" y2="50"/>
      <polyline fill="none" stroke="#7b9352" stroke-width="1.3"
        points="2,46 14,42 26,48 38,38 50,44 62,34 74,40 86,32 98,38 110,28 122,34 134,26 142,32 150,30"/>
      <text x="-6" y="54" text-anchor="end" class="tiny">c2</text>
      <line class="axis" x1="0" y1="80" x2="150" y2="80"/>
      <polyline fill="none" stroke="#b35e5e" stroke-width="1.3"
        points="2,74 14,78 26,72 38,76 50,68 62,74 74,66 86,70 98,64 110,68 122,60 134,66 142,58 150,62"/>
      <text x="-6" y="84" text-anchor="end" class="tiny">c3</text>
      <text x="75" y="98" text-anchor="middle" class="smaller">look-back L &#183; channels C &#183; horizon H</text>
    </g>

    <!-- searchable normalisation head -->
    <g transform="translate(212,56)">
      <rect x="0" y="0" width="172" height="78" rx="10" fill="#f4f8fc" stroke="#bcd0e6" stroke-width="1"/>
      <text x="86" y="18" text-anchor="middle" class="famHdr" fill="#3e5b7a">searchable norm head</text>
      <text x="86" y="38" text-anchor="middle" class="math" fill="#3e5b7a">&#960;&#8321;&#183;RevIN + &#960;&#8322;&#183;IN + &#960;&#8323;&#183;Id</text>
      <text x="86" y="58" text-anchor="middle" class="smaller">&#960; = softmax(&#945;_norm / &#964;)</text>
    </g>
  </g>

  <!-- spine arrow 1->2 -->
  <path class="flow" marker-end="url(#arrow)" d="M 590 290 L 590 322"/>

  <!-- ============================================================= -->
  <!-- STAGE 2 - SEARCH SPACE                                         -->
  <!-- ============================================================= -->
  <g transform="translate(440,326)">
    <rect x="0" y="0" width="300" height="30" rx="15" fill="#6b8db5"/>
    <circle cx="20" cy="15" r="10" fill="#ffffff" opacity="0.18"/>
    <text x="20" y="19" text-anchor="middle" class="stageNo">2</text>
    <text x="160" y="19" text-anchor="middle" class="stage">SEARCH SPACE</text>
  </g>

  <!-- central DARTS cell DAG (spine) -->
  <g transform="translate(390,372)" filter="url(#soft)">
    <rect x="0" y="0" width="400" height="158" rx="14" fill="#fbf8f0" stroke="#e6dcc4" stroke-width="1"/>
    <text x="200" y="24" text-anchor="middle" class="famHdr" fill="#6a5733">DARTS cell DAG &#183; mixed operation per edge</text>
    <text x="200" y="40" text-anchor="middle" class="small">&#244;_e = &#8721;_k p_e,k &#183; o_k(x) &#8212; soft / DrNAS Dir / GDAS straight-through</text>

    <g transform="translate(60,48)">
      <!-- nodes -->
      <circle cx="20"  cy="38" r="11" fill="#ffffff" stroke="#6a5733" stroke-width="1.2"/>
      <text x="20" y="42" text-anchor="middle" class="tiny">h&#8331;&#8321;</text>
      <circle cx="110" cy="16" r="11" fill="#ffffff" stroke="#6a5733" stroke-width="1.2"/>
      <text x="110" y="20" text-anchor="middle" class="tiny">h0</text>
      <circle cx="190" cy="56" r="11" fill="#ffffff" stroke="#6a5733" stroke-width="1.2"/>
      <text x="190" y="60" text-anchor="middle" class="tiny">h1</text>
      <circle cx="262" cy="26" r="11" fill="#9c8559" stroke="#6a5733" stroke-width="1.2"/>
      <text x="262" y="30" text-anchor="middle" class="tiny" fill="#ffffff">h2</text>
      <!-- edges -->
      <line x1="30"  y1="35" x2="100" y2="19" stroke="#6a5733" stroke-width="1.1"/>
      <line x1="30"  y1="40" x2="180" y2="54" stroke="#6a5733" stroke-width="0.8" opacity="0.6"/>
      <line x1="120" y1="18" x2="180" y2="54" stroke="#6a5733" stroke-width="1.4"/>
      <line x1="120" y1="18" x2="252" y2="26" stroke="#6a5733" stroke-width="0.8" opacity="0.6"/>
      <line x1="200" y1="54" x2="252" y2="28" stroke="#6a5733" stroke-width="1.1"/>
      <!-- mixed-op badge -->
      <g transform="translate(130,28)">
        <rect x="0" y="0" width="52" height="15" rx="7" fill="#ffffff" stroke="#c9b98e"/>
        <text x="26" y="11" text-anchor="middle" class="tiny" fill="#6a5733">&#8721; p&#183;o_k</text>
      </g>
    </g>
    <!-- routing pills -->
    <g transform="translate(60,118)">
      <rect x="0"   y="0" width="96" height="16" rx="8" fill="#ffffff" stroke="#c9b98e"/>
      <text x="48"  y="11" text-anchor="middle" class="tiny" fill="#6a5733">PC routing (&#961;&#183;C)</text>
      <rect x="104" y="0" width="92" height="16" rx="8" fill="#ffffff" stroke="#c9b98e"/>
      <text x="150" y="11" text-anchor="middle" class="tiny" fill="#6a5733">DropPath p_drop</text>
      <rect x="204" y="0" width="78" height="16" rx="8" fill="#ffffff" stroke="#c9b98e"/>
      <text x="243" y="11" text-anchor="middle" class="tiny" fill="#6a5733">cosine &#964;(e)</text>
    </g>
  </g>

  <!-- LEFT branch: MLP + Conv families -->
  <g transform="translate(36,360)" filter="url(#softSm)">
    <rect x="0" y="0" width="320" height="86" rx="12" fill="#f4f8fc" stroke="#cfe0f0" stroke-width="1"/>
    <text x="14" y="20" class="famHdr" fill="#3e5b7a">M_mlp &#183; MLP family</text>
    <text x="14" y="36" class="small">Identity &#183; ResidualMLP &#183; GRN &#183; TimeMixer &#183; NBeats</text>
    <g transform="translate(12,44)">
      <line class="axis" x1="0" y1="34" x2="296" y2="34"/>
      <g fill="#6b8db5">
        <rect x="4"   y="22" width="9" height="12"/><rect x="22"  y="14" width="9" height="20"/>
        <rect x="40"  y="26" width="9" height="8"/> <rect x="58"  y="8"  width="9" height="26"/>
        <rect x="76"  y="20" width="9" height="14"/><rect x="94"  y="6"  width="9" height="28"/>
        <rect x="112" y="18" width="9" height="16"/><rect x="130" y="12" width="9" height="22"/>
        <rect x="148" y="24" width="9" height="10"/><rect x="166" y="8"  width="9" height="26"/>
        <rect x="184" y="20" width="9" height="14"/><rect x="202" y="10" width="9" height="24"/>
        <rect x="220" y="16" width="9" height="18"/><rect x="238" y="5"  width="9" height="29"/>
        <rect x="256" y="14" width="9" height="20"/><rect x="274" y="22" width="9" height="12"/>
      </g>
      <text x="294" y="32" text-anchor="end" class="tiny" fill="#3e5b7a" font-style="italic">position-wise dense</text>
    </g>
  </g>

  <g transform="translate(36,456)" filter="url(#softSm)">
    <rect x="0" y="0" width="320" height="86" rx="12" fill="#f5f9ee" stroke="#d6e3c2" stroke-width="1"/>
    <text x="14" y="20" class="famHdr" fill="#4f6a35">M_conv &#183; Conv family</text>
    <text x="14" y="36" class="small">TimeConv &#183; TCN &#183; ConvMixer &#183; MultiScaleConv &#183; PyramidConv</text>
    <g transform="translate(12,44)">
      <line class="axis" x1="0" y1="34" x2="296" y2="34"/>
      <g stroke="#7b9352" stroke-width="1.2" fill="none">
        <path d="M 8,28 Q 20,18 32,28"/><path d="M 32,28 Q 44,18 56,28"/><path d="M 56,28 Q 68,18 80,28"/>
      </g>
      <g stroke="#7b9352" stroke-width="1.2" fill="none" opacity="0.65">
        <path d="M 90,18 Q 114,2 138,18"/><path d="M 138,18 Q 162,2 186,18"/>
      </g>
      <g stroke="#7b9352" stroke-width="1.2" fill="none" opacity="0.45">
        <path d="M 196,10 Q 232,-10 268,10"/>
      </g>
      <g fill="#4f6a35">
        <circle cx="8"  cy="28" r="1.3"/><circle cx="32" cy="28" r="1.3"/><circle cx="56" cy="28" r="1.3"/>
        <circle cx="80" cy="28" r="1.3"/><circle cx="104" cy="28" r="1.3"/><circle cx="128" cy="28" r="1.3"/>
        <circle cx="152" cy="28" r="1.3"/><circle cx="176" cy="28" r="1.3"/><circle cx="200" cy="28" r="1.3"/>
        <circle cx="224" cy="28" r="1.3"/><circle cx="248" cy="28" r="1.3"/><circle cx="272" cy="28" r="1.3"/>
      </g>
      <text x="294" y="32" text-anchor="end" class="tiny" fill="#4f6a35" font-style="italic">dilated / causal kernels</text>
    </g>
  </g>

  <!-- RIGHT branch: Frequency + Attention families -->
  <g transform="translate(824,360)" filter="url(#softSm)">
    <rect x="0" y="0" width="320" height="86" rx="12" fill="#f7f0f8" stroke="#e1cee6" stroke-width="1"/>
    <text x="14" y="20" class="famHdr" fill="#5e4566">M_freq &#183; Frequency family</text>
    <text x="14" y="36" class="small">Fourier &#183; Wavelet &#183; DLinear &#183; TimesNet</text>
    <g transform="translate(12,44)">
      <line class="axis" x1="0" y1="34" x2="296" y2="34"/>
      <g fill="#8b6794">
        <rect x="4"  y="20" width="6" height="14"/><rect x="16" y="6"  width="6" height="28"/>
        <rect x="28" y="-2" width="6" height="36"/><rect x="40" y="2"  width="6" height="32"/>
        <rect x="52" y="10" width="6" height="24"/><rect x="64" y="18" width="6" height="16"/>
        <rect x="76" y="24" width="6" height="10"/>
      </g>
      <g fill="#bba3c2">
        <rect x="92"  y="28" width="6" height="6"/><rect x="104" y="26" width="6" height="8"/>
        <rect x="116" y="30" width="6" height="4"/><rect x="128" y="28" width="6" height="6"/>
        <rect x="140" y="30" width="6" height="4"/><rect x="152" y="28" width="6" height="6"/>
      </g>
      <line x1="86" y1="-6" x2="86" y2="34" stroke="#8b6794" stroke-width="0.6" stroke-dasharray="2 2"/>
      <text x="44"  y="46" text-anchor="middle" class="tiny" fill="#5e4566">low-freq</text>
      <text x="120" y="46" text-anchor="middle" class="tiny" fill="#5e4566">high-freq</text>
      <text x="294" y="32" text-anchor="end" class="tiny" fill="#5e4566" font-style="italic">spectral decomposition</text>
    </g>
  </g>

  <g transform="translate(824,456)" filter="url(#softSm)">
    <rect x="0" y="0" width="320" height="86" rx="12" fill="#fdf2e3" stroke="#ecd2b3" stroke-width="1"/>
    <text x="14" y="20" class="famHdr" fill="#7d4f2a">M_attn &#183; Attention family</text>
    <text x="14" y="36" class="small">PatchEmbed &#183; InvertedAttention (iTransformer)</text>
    <g transform="translate(12,42)">
      <g stroke="#c08652" stroke-width="0.4" fill="#fbe5cf">
        <rect x="4"  y="2"  width="8" height="8" opacity="0.3"/><rect x="13" y="2"  width="8" height="8" opacity="0.5"/>
        <rect x="22" y="2"  width="8" height="8" opacity="0.9"/><rect x="31" y="2"  width="8" height="8" opacity="0.4"/>
        <rect x="4"  y="11" width="8" height="8" opacity="0.5"/><rect x="13" y="11" width="8" height="8" opacity="0.9"/>
        <rect x="22" y="11" width="8" height="8" opacity="0.4"/><rect x="31" y="11" width="8" height="8" opacity="0.7"/>
        <rect x="4"  y="20" width="8" height="8" opacity="0.7"/><rect x="13" y="20" width="8" height="8" opacity="0.4"/>
        <rect x="22" y="20" width="8" height="8" opacity="0.9"/><rect x="31" y="20" width="8" height="8" opacity="0.3"/>
      </g>
      <text x="22" y="40" text-anchor="middle" class="tiny" fill="#7d4f2a">QK&#7488; map</text>
      <g transform="translate(80,2)">
        <rect x="0"  y="0" width="12" height="28" fill="#fbe5cf" stroke="#c08652"/>
        <rect x="16" y="0" width="12" height="28" fill="#fbe5cf" stroke="#c08652"/>
        <rect x="32" y="0" width="12" height="28" fill="#fbe5cf" stroke="#c08652"/>
        <rect x="48" y="0" width="12" height="28" fill="#fbe5cf" stroke="#c08652"/>
        <text x="30" y="40" text-anchor="middle" class="tiny" fill="#7d4f2a">channels as tokens</text>
      </g>
      <text x="294" y="40" text-anchor="end" class="tiny" fill="#7d4f2a" font-style="italic">global token mixing</text>
    </g>
  </g>

  <!-- branch connectors into the central cell -->
  <path class="flowDim" marker-end="url(#arrowGray)" d="M 356 403 C 374 403, 378 430, 390 440"/>
  <path class="flowDim" marker-end="url(#arrowGray)" d="M 356 499 C 374 499, 378 470, 390 460"/>
  <path class="flowDim" marker-end="url(#arrowGray)" d="M 824 403 C 806 403, 802 430, 790 440"/>
  <path class="flowDim" marker-end="url(#arrowGray)" d="M 824 499 C 806 499, 802 470, 790 460"/>

  <!-- hierarchical factorisation note -->
  <text x="590" y="552" text-anchor="middle" class="small" font-style="italic">|O| = 16 cell operations &#183; hierarchical group &#215; op factorisation&#160;&#160;p_e,k = &#960;_g(&#945;_G) &#183; q_g,k</text>

  <!-- spine arrow 2->3 -->
  <path class="flow" marker-end="url(#arrow)" d="M 590 558 L 590 588"/>

  <!-- ============================================================= -->
  <!-- STAGE 3 - BI-LEVEL OPTIMISATION                                -->
  <!-- ============================================================= -->
  <g transform="translate(440,592)">
    <rect x="0" y="0" width="300" height="30" rx="15" fill="#b89a3e"/>
    <circle cx="20" cy="15" r="10" fill="#ffffff" opacity="0.18"/>
    <text x="20" y="19" text-anchor="middle" class="stageNo">3</text>
    <text x="160" y="19" text-anchor="middle" class="stage">BI-LEVEL OPTIMISATION</text>
  </g>

  <!-- central bilevel card (spine) -->
  <g transform="translate(370,638)" filter="url(#soft)">
    <rect x="0" y="0" width="440" height="230" rx="14" class="card"/>
    <text x="220" y="26" text-anchor="middle" class="lbl" font-weight="700">bi-level update on stratified 50/50 split</text>

    <!-- alternation -->
    <g transform="translate(20,40)">
      <rect x="0" y="0" width="400" height="60" rx="10" fill="#f7f8fb" stroke="#e3e7ee"/>
      <g transform="translate(16,10)">
        <rect x="0" y="0" width="170" height="24" rx="8" fill="#eaf2fb" stroke="#bcd0e6"/>
        <text x="85" y="16" text-anchor="middle" class="smaller" fill="#3e5b7a">w update on L_train</text>
        <text x="85" y="44" text-anchor="middle" class="tiny">inner (weights)</text>
      </g>
      <g transform="translate(214,10)">
        <rect x="0" y="0" width="170" height="24" rx="8" fill="#fbf6e6" stroke="#e3d49a"/>
        <text x="85" y="16" text-anchor="middle" class="smaller" fill="#6e5a1f">&#945; update</text>
        <text x="85" y="44" text-anchor="middle" class="tiny">outer (architecture)</text>
      </g>
      <path d="M 186,16 C 198,8 202,8 214,16" fill="none" stroke="#9aa1ad" stroke-width="1" marker-end="url(#arrowGray)"/>
      <path d="M 214,24 C 202,32 196,32 186,24" fill="none" stroke="#9aa1ad" stroke-width="1" marker-end="url(#arrowGray)"/>
    </g>
    <text x="220" y="116" text-anchor="middle" class="smaller" font-style="italic">g&#770; = EMA(&#8711; L_&#945;)</text>

    <!-- total loss + curvature -->
    <g transform="translate(20,124)">
      <rect x="0" y="0" width="400" height="92" rx="10" fill="#f7f8fb" stroke="#e3e7ee"/>
      <text x="200" y="18" text-anchor="middle" class="lbl" font-weight="700">L_&#945; = L_val + &#8721;_i &#955;_i R_i</text>
      <!-- curvature glyph -->
      <g transform="translate(20,28)">
        <line class="axis" x1="0" y1="48" x2="170" y2="48"/>
        <path fill="none" stroke="#b35e5e" stroke-width="1.3" d="M 0,10 Q 44,48 85,48 T 170,10"/>
        <line x1="72" y1="44" x2="72" y2="52" stroke="#1f2430" stroke-width="1"/>
        <line x1="98" y1="44" x2="98" y2="52" stroke="#1f2430" stroke-width="1"/>
        <text x="85" y="60" text-anchor="middle" class="tiny">&#177;&#949;</text>
        <text x="0" y="8" class="tiny" fill="#6b7280">L_val(w)</text>
      </g>
      <g transform="translate(210,30)">
        <text x="0" y="6"  class="tiny" fill="#7a3838">R_c &#183; SDARTS curvature smoothing</text>
        <text x="0" y="22" class="tiny" fill="#6b7280">d = &#8711;_w L_train / &#8214;&#183;&#8214;</text>
        <text x="0" y="44" class="tiny" fill="#6b7280" font-style="italic">flat-minima regulariser sharpens</text>
        <text x="0" y="56" class="tiny" fill="#6b7280" font-style="italic">the architecture landscape</text>
      </g>
    </g>
  </g>

  <!-- LEFT branch: five regularisers -->
  <g transform="translate(36,636)" filter="url(#softSm)">
    <rect x="0" y="0" width="300" height="150" rx="12" fill="#ffffff" stroke="#e3e7ee" stroke-width="1"/>
    <text x="150" y="22" text-anchor="middle" class="famHdr">five architecture regularisers</text>
    <g transform="translate(16,32)">
      <rect x="0"   y="0"  width="132" height="24" rx="8" fill="#eef4ff" stroke="#bcd0e6"/>
      <text x="66"  y="15" text-anchor="middle" class="smaller" fill="#3e5b7a">R_kl &#183; KL to uniform</text>
      <rect x="138" y="0"  width="132" height="24" rx="8" fill="#f5fbe8" stroke="#d6e3c2"/>
      <text x="204" y="15" text-anchor="middle" class="smaller" fill="#4f6a35">R_flop &#183; FLOPs</text>
      <rect x="0"   y="30" width="132" height="24" rx="8" fill="#f7eef9" stroke="#e1cee6"/>
      <text x="66"  y="45" text-anchor="middle" class="smaller" fill="#5e4566">&#946;-DARTS &#183; &#8214;&#945;&#8214;&#178;</text>
      <rect x="138" y="30" width="132" height="24" rx="8" fill="#fdf2e3" stroke="#ecd2b3"/>
      <text x="204" y="45" text-anchor="middle" class="smaller" fill="#7d4f2a">R_aux &#183; cos+ent+id</text>
      <rect x="69"  y="60" width="132" height="24" rx="8" fill="#faeaea" stroke="#e6c4c4"/>
      <text x="135" y="75" text-anchor="middle" class="smaller" fill="#7a3838">R_c &#183; curvature</text>
    </g>
    <text x="150" y="138" text-anchor="middle" class="tiny" fill="#6b7280" font-style="italic">each &#955;_i weights one inductive bias</text>
  </g>

  <!-- RIGHT branch: three estimators + temperature -->
  <g transform="translate(844,636)" filter="url(#softSm)">
    <rect x="0" y="0" width="300" height="150" rx="12" fill="#ffffff" stroke="#e3e7ee" stroke-width="1"/>
    <text x="150" y="22" text-anchor="middle" class="famHdr">three exchangeable estimators</text>
    <g transform="translate(14,30)">
      <rect x="0"   y="0" width="86" height="46" rx="8" fill="#eef4ff" stroke="#bcd0e6"/>
      <text x="43" y="16" text-anchor="middle" class="smaller" fill="#3e5b7a" font-weight="700">soft</text>
      <text x="43" y="30" text-anchor="middle" class="tiny">&#8721; p_k o_k(x)</text>
      <text x="43" y="41" text-anchor="middle" class="tiny" fill="#6b7280">all ops</text>
      <rect x="94"  y="0" width="86" height="46" rx="8" fill="#f7eef9" stroke="#e1cee6"/>
      <text x="137" y="16" text-anchor="middle" class="smaller" fill="#5e4566" font-weight="700">DrNAS</text>
      <text x="137" y="30" text-anchor="middle" class="tiny">p&#770; ~ Dir(&#951;p)</text>
      <text x="137" y="41" text-anchor="middle" class="tiny" fill="#6b7280">stochastic</text>
      <rect x="188" y="0" width="86" height="46" rx="8" fill="#f5fbe8" stroke="#d6e3c2"/>
      <text x="231" y="16" text-anchor="middle" class="smaller" fill="#4f6a35" font-weight="700">GDAS</text>
      <text x="231" y="30" text-anchor="middle" class="tiny">argmax + ST</text>
      <text x="231" y="41" text-anchor="middle" class="tiny" fill="#6b7280">1 op / fwd</text>
    </g>
    <!-- temperature curve -->
    <g transform="translate(14,90)">
      <line class="axis" x1="0" y1="44" x2="120" y2="44"/>
      <line class="axis" x1="0" y1="6"  x2="0"  y2="44"/>
      <path fill="none" stroke="#3e5b7a" stroke-width="1.6" d="M 0,8 L 16,8 Q 26,8 36,16 T 68,34 T 118,42"/>
      <text x="2"  y="6" class="tiny">&#964;0</text>
      <text x="118" y="42" class="tiny" text-anchor="end" dy="10">&#964;_min</text>
      <text x="60" y="56" text-anchor="middle" class="tiny" fill="#6b7280">epoch e</text>
    </g>
    <g transform="translate(150,90)">
      <text x="55" y="4" text-anchor="middle" class="smaller" fill="#6b7280">op pool</text>
      <rect x="0" y="8"  width="34" height="14" fill="#eef4ff" stroke="#bcd0e6"/>
      <rect x="0" y="8"  width="66" height="14" fill="none" stroke="#bcd0e6" stroke-dasharray="2 2"/>
      <rect x="0" y="8"  width="112" height="14" fill="none" stroke="#bcd0e6" stroke-dasharray="2 2"/>
      <text x="17" y="34" text-anchor="middle" class="tiny">basic</text>
      <text x="50" y="34" text-anchor="middle" class="tiny">int.</text>
      <text x="89" y="34" text-anchor="middle" class="tiny">adv.</text>
      <text x="55" y="48" text-anchor="middle" class="tiny" fill="#6b7280" font-style="italic">progressive unfolding</text>
    </g>
  </g>

  <!-- branch connectors into bilevel card -->
  <path class="flowDim" marker-end="url(#arrowGray)" d="M 336 712 C 354 712, 360 740, 370 750"/>
  <path class="flowDim" marker-end="url(#arrowGray)" d="M 844 712 C 826 712, 820 740, 810 750"/>

  <!-- topology mode panel (branches left, feeds ASHA) -->
  <g transform="translate(36,808)" filter="url(#softSm)">
    <rect x="0" y="0" width="300" height="148" rx="12" fill="#fbf6e6" stroke="#e3d49a" stroke-width="1"/>
    <text x="150" y="20" text-anchor="middle" class="lbl" font-weight="700" fill="#6e5a1f">topology mode m &#8712; M</text>
    <text x="150" y="34" text-anchor="middle" class="tiny" font-style="italic" fill="#6e5a1f">discrete axis &#183; outer ASHA loop</text>
    <g transform="translate(16,42)">
      <rect x="0" y="0" width="54" height="22" rx="6" fill="#dde5ef" stroke="#3e5b7a"/>
      <text x="27" y="15" text-anchor="middle" class="tiny" font-weight="700" fill="#3e5b7a">Encoder</text>
      <rect x="72" y="0" width="54" height="22" rx="6" fill="#e0ebd1" stroke="#4f6a35"/>
      <text x="99" y="15" text-anchor="middle" class="tiny" font-weight="700" fill="#4f6a35">Decoder</text>
      <path d="M 54 11 C 62 11, 64 11, 72 11" fill="none" stroke="#b35e5e" stroke-width="1.2" stroke-dasharray="4 3" marker-end="url(#arrow)"/>
      <text x="140" y="9" class="tiny" font-weight="700" fill="#6e5a1f">enc-dec</text>
      <text x="140" y="20" class="tiny" fill="#5b6472">bridge active (default)</text>
    </g>
    <g transform="translate(16,72)">
      <rect x="0" y="0" width="54" height="22" rx="6" fill="#dde5ef" stroke="#3e5b7a"/>
      <text x="27" y="15" text-anchor="middle" class="tiny" font-weight="700" fill="#3e5b7a">Encoder</text>
      <rect x="72" y="0" width="54" height="22" rx="6" fill="#f7f8fb" stroke="#c4cad3" stroke-dasharray="3 3"/>
      <text x="99" y="15" text-anchor="middle" class="tiny" fill="#9aa1ad">&#8212;</text>
      <text x="140" y="9" class="tiny" font-weight="700" fill="#6e5a1f">enc-only</text>
      <text x="140" y="20" class="tiny" fill="#5b6472">PatchTST-style head</text>
    </g>
    <g transform="translate(16,102)">
      <rect x="0" y="0" width="54" height="22" rx="6" fill="#f7f8fb" stroke="#c4cad3" stroke-dasharray="3 3"/>
      <text x="27" y="15" text-anchor="middle" class="tiny" fill="#9aa1ad">&#8212;</text>
      <rect x="72" y="0" width="54" height="22" rx="6" fill="#e0ebd1" stroke="#4f6a35"/>
      <text x="99" y="15" text-anchor="middle" class="tiny" font-weight="700" fill="#4f6a35">Decoder</text>
      <text x="140" y="9" class="tiny" font-weight="700" fill="#6e5a1f">dec-only</text>
      <text x="140" y="20" class="tiny" fill="#5b6472">autoregressive, masked</text>
    </g>
  </g>

  <!-- spine arrow 3->discretisation -->
  <path class="flow" marker-end="url(#arrow)" d="M 590 868 L 590 898"/>

  <!-- discretisation block (spine) -->
  <g transform="translate(420,902)" filter="url(#soft)">
    <rect x="0" y="0" width="340" height="74" rx="12" fill="#ffffff" stroke="#cfd5de" stroke-width="1.2"/>
    <text x="170" y="24" text-anchor="middle" class="lbl" font-weight="700">architecture discretisation</text>
    <text x="170" y="44" text-anchor="middle" class="math" fill="#5b6472">o*_e = argmax_j p_e,j</text>
    <text x="170" y="62" text-anchor="middle" class="smaller">retained iff p_e &gt; &#952; &#8212; else &#8594; Identity</text>
  </g>

  <!-- topology mode -> ASHA connector + multi-fidelity outer loop (branch right) -->
  <g transform="translate(844,808)" filter="url(#softSm)">
    <rect x="0" y="0" width="300" height="148" rx="12" fill="#fbf6e6" stroke="#e3d49a" stroke-width="1"/>
    <text x="150" y="20" text-anchor="middle" class="lbl" font-weight="700" fill="#6e5a1f">multi-fidelity outer loop (ASHA)</text>
    <g transform="translate(20,28)">
      <text x="30" y="8" text-anchor="middle" class="tiny" fill="#6e5a1f" font-weight="700">P1 zero-cost</text>
      <g fill="#b89a3e">
        <circle cx="6"  cy="20" r="1.5"/><circle cx="14" cy="20" r="1.5"/><circle cx="22" cy="20" r="1.5"/>
        <circle cx="30" cy="20" r="1.5"/><circle cx="38" cy="20" r="1.5"/><circle cx="46" cy="20" r="1.5"/>
        <circle cx="6"  cy="28" r="1.5"/><circle cx="14" cy="28" r="1.5"/><circle cx="22" cy="28" r="1.5"/>
        <circle cx="30" cy="28" r="1.5"/><circle cx="38" cy="28" r="1.5"/><circle cx="46" cy="28" r="1.5"/>
        <circle cx="6"  cy="36" r="1.5"/><circle cx="14" cy="36" r="1.5"/><circle cx="22" cy="36" r="1.5"/>
        <circle cx="30" cy="36" r="1.5"/><circle cx="38" cy="36" r="1.5"/><circle cx="46" cy="36" r="1.5"/>
      </g>
      <text x="26" y="52" text-anchor="middle" class="tiny" fill="#6e5a1f">synflow / SNIP</text>
      <line x1="58" y1="28" x2="80" y2="28" stroke="#6e5a1f" stroke-width="1.2" marker-end="url(#arrowGray)"/>
      <text x="116" y="8" text-anchor="middle" class="tiny" fill="#6e5a1f" font-weight="700">P2 partial</text>
      <g fill="#b89a3e">
        <circle cx="96" cy="22" r="2"/><circle cx="108" cy="22" r="2"/><circle cx="120" cy="22" r="2"/>
        <circle cx="96" cy="32" r="2"/><circle cx="108" cy="32" r="2"/><circle cx="120" cy="32" r="2"/>
      </g>
      <text x="110" y="52" text-anchor="middle" class="tiny" fill="#6e5a1f">E1 epochs</text>
      <line x1="134" y1="28" x2="156" y2="28" stroke="#6e5a1f" stroke-width="1.2" marker-end="url(#arrowGray)"/>
      <text x="200" y="8" text-anchor="middle" class="tiny" fill="#2e5b3a" font-weight="700">P3 full DARTS</text>
      <g fill="#3f9d6b">
        <circle cx="180" cy="28" r="2.6"/><circle cx="194" cy="28" r="2.6"/><circle cx="208" cy="28" r="2.6"/>
      </g>
      <text x="194" y="52" text-anchor="middle" class="tiny" fill="#2e5b3a">full budget E</text>
    </g>
    <g transform="translate(16,92)">
      <text x="0" y="0"  class="tiny" fill="#6e5a1f">ASHA halving (&#951;=2) over non-diff axes:</text>
      <text x="0" y="14" class="tiny" fill="#6e5a1f">topology mode m &#183; cell count K &#183; width d_h</text>
      <text x="0" y="32" class="tiny" fill="#6b7280" font-style="italic">early-stopping of poor candidates dominates GPU time</text>
    </g>
  </g>
  <!-- topology -> ASHA dashed link across the spine -->
  <path class="flowDim" marker-end="url(#arrowGray)" d="M 336 838 C 540 800, 700 800, 844 838"/>
  <text x="590" y="800" text-anchor="middle" class="tiny" fill="#6b7280" font-style="italic">m, K, d_h &#8594; ASHA</text>

  <!-- spine arrow discretisation->4 (with argmax label) -->
  <path class="winFlow" marker-end="url(#arrowWin)" d="M 590 976 L 590 1010"/>
  <text x="606" y="996" class="smaller" font-style="italic" fill="#2e5b3a">argmax &#945;</text>

  <!-- ============================================================= -->
  <!-- STAGE 4 - DERIVED CHILD                                        -->
  <!-- ============================================================= -->
  <g transform="translate(440,1014)">
    <rect x="0" y="0" width="300" height="30" rx="15" fill="#3f9d6b"/>
    <circle cx="20" cy="15" r="10" fill="#ffffff" opacity="0.18"/>
    <text x="20" y="19" text-anchor="middle" class="stageNo">4</text>
    <text x="160" y="19" text-anchor="middle" class="stage">DERIVED CHILD</text>
  </g>

  <!-- derived discrete cell (spine, left) and final trainer (right) -->
  <g transform="translate(200,1060)" filter="url(#soft)">
    <rect x="0" y="0" width="360" height="240" rx="14" class="card"/>
    <text x="180" y="26" text-anchor="middle" class="lbl" font-weight="700">derived discrete cell</text>
    <text x="180" y="42" text-anchor="middle" class="smaller">one operation per retained edge</text>
    <g transform="translate(40,60)">
      <circle cx="20"  cy="60" r="11" fill="#ffffff" stroke="#2e5b3a" stroke-width="1.4"/>
      <text x="20" y="64" text-anchor="middle" class="tiny">h&#8331;&#8321;</text>
      <circle cx="120" cy="20" r="11" fill="#ffffff" stroke="#2e5b3a" stroke-width="1.4"/>
      <text x="120" y="24" text-anchor="middle" class="tiny">h0</text>
      <circle cx="210" cy="74" r="11" fill="#ffffff" stroke="#2e5b3a" stroke-width="1.4"/>
      <text x="210" y="78" text-anchor="middle" class="tiny">h1</text>
      <circle cx="290" cy="40" r="11" fill="#3f9d6b" stroke="#2e5b3a" stroke-width="1.4"/>
      <text x="290" y="44" text-anchor="middle" class="tiny" fill="#ffffff">h2</text>
      <line x1="30"  y1="56" x2="110" y2="24" stroke="#3f9d6b" stroke-width="1.8" marker-end="url(#arrowWin)"/>
      <line x1="30"  y1="64" x2="200" y2="72" stroke="#3f9d6b" stroke-width="1.8" marker-end="url(#arrowWin)"/>
      <line x1="130" y1="24" x2="280" y2="40" stroke="#3f9d6b" stroke-width="1.8" marker-end="url(#arrowWin)"/>
      <line x1="220" y1="72" x2="284" y2="46" stroke="#3f9d6b" stroke-width="1.8" marker-end="url(#arrowWin)"/>
      <g class="tiny" fill="#2e5b3a">
        <text x="58"  y="36">Wavelet</text>
        <text x="104" y="70">TimeConv</text>
        <text x="208" y="30">GRN</text>
        <text x="256" y="66">InvAttn</text>
      </g>
    </g>
    <g transform="translate(20,184)">
      <rect x="0" y="0" width="320" height="46" rx="10" fill="#eaf4ed" stroke="#a8d4ba" stroke-width="1"/>
      <text x="160" y="15" text-anchor="middle" class="smaller" font-weight="700" fill="#2e5b3a">discrete block-level choices</text>
      <text x="10"  y="31" class="tiny" fill="#2e5b3a">norm: RevIN</text>
      <text x="120" y="31" class="tiny" fill="#2e5b3a">mode: enc-dec</text>
      <text x="230" y="31" class="tiny" fill="#2e5b3a">bridge: Linear</text>
      <text x="10"  y="42" class="tiny" fill="#2e5b3a">pos: RoPE</text>
      <text x="120" y="42" class="tiny" fill="#2e5b3a">cells: K = 4</text>
      <text x="230" y="42" class="tiny" fill="#2e5b3a">width: d_h = 192</text>
    </g>
  </g>

  <!-- arrow derived cell -> final trainer -->
  <path class="winFlow" marker-end="url(#arrowWin)" d="M 560 1180 L 600 1180"/>

  <g transform="translate(600,1060)" filter="url(#soft)">
    <rect x="0" y="0" width="380" height="240" rx="14" fill="#eaf4ed" stroke="#7fc09a" stroke-width="1.4"/>
    <text x="190" y="26" text-anchor="middle" class="lbl" font-weight="700" fill="#2e5b3a">FinalTrainer &#183; retrain from scratch</text>
    <text x="190" y="42" text-anchor="middle" class="smaller" fill="#2e5b3a">one-cycle LR &#183; SWA on last 33%</text>
    <g transform="translate(28,54)">
      <rect x="0" y="0" width="150" height="100" rx="6" fill="#ffffff" stroke="#cfd5de"/>
      <text x="75" y="14" text-anchor="middle" class="smaller">look-back X (L)</text>
      <line class="axis" x1="10" y1="90" x2="142" y2="90"/>
      <line class="axis" x1="10" y1="22" x2="10"  y2="90"/>
      <polyline fill="none" stroke="#3c5b80" stroke-width="1.4"
        points="12,82 26,72 40,76 54,62 68,68 82,54 96,60 110,46 124,52 142,40"/>
      <polyline fill="none" stroke="#7b9352" stroke-width="1.0" opacity="0.7"
        points="12,86 26,80 40,84 54,76 68,80 82,72 96,76 110,68 124,72 142,64"/>
      <path class="winFlow" marker-end="url(#arrowWin)" d="M 154 50 L 170 50"/>
      <rect x="172" y="0" width="150" height="100" rx="6" fill="#ffffff" stroke="#cfd5de"/>
      <text x="247" y="14" text-anchor="middle" class="smaller" fill="#2e5b3a">forecast Y&#770; (H)</text>
      <line class="axis" x1="182" y1="90" x2="314" y2="90"/>
      <line class="axis" x1="182" y1="22" x2="182" y2="90"/>
      <path d="M 184,46 L 200,40 L 216,36 L 232,32 L 248,30 L 264,28 L 280,26 L 296,26 L 314,26 L 314,14 L 296,14 L 280,14 L 264,16 L 248,18 L 232,20 L 216,24 L 200,28 L 184,34 Z"
            fill="#3f9d6b" opacity="0.12"/>
      <polyline fill="none" stroke="#9aa1ad" stroke-width="0.8" stroke-dasharray="3 3"
        points="184,38 200,32 216,28 232,24 248,22 264,20 280,18 296,18 314,18"/>
      <polyline fill="none" stroke="#3f9d6b" stroke-width="2.0"
        points="184,40 200,34 216,30 232,26 248,24 264,22 280,20 296,20 314,20"/>
    </g>
    <text x="190" y="186" text-anchor="middle" class="small" fill="#2e5b3a">child evaluated on held-out test</text>
    <text x="190" y="202" text-anchor="middle" class="smaller" fill="#2e5b3a" font-style="italic">MAE / MSE / sMAPE reported per dataset</text>
    <text x="190" y="222" text-anchor="middle" class="tiny" fill="#5b6472">argmax norm / mode / bridge / pos applied as hard choice</text>
  </g>

  <!-- ===================== Legend ===================== -->
  <g transform="translate(40,1330)" filter="url(#softSm)">
    <rect x="0" y="0" width="1100" height="64" rx="12" fill="#ffffff" stroke="#e3e7ee"/>
    <text x="20" y="22" class="small" font-weight="700" fill="#1f2430">Operation families</text>
    <g transform="translate(150,14)">
      <rect x="0" y="0" width="14" height="12" rx="3" fill="#eef4ff" stroke="#bcd0e6"/><text x="20" y="10" class="small">MLP</text>
    </g>
    <g transform="translate(220,14)">
      <rect x="0" y="0" width="14" height="12" rx="3" fill="#f5fbe8" stroke="#d6e3c2"/><text x="20" y="10" class="small">Conv / FFN</text>
    </g>
    <g transform="translate(320,14)">
      <rect x="0" y="0" width="14" height="12" rx="3" fill="#f7eef9" stroke="#e1cee6"/><text x="20" y="10" class="small">Frequency / positional</text>
    </g>
    <g transform="translate(480,14)">
      <rect x="0" y="0" width="14" height="12" rx="3" fill="#fdf2e3" stroke="#ecd2b3"/><text x="20" y="10" class="small">Patch / attention</text>
    </g>
    <g transform="translate(640,14)">
      <rect x="0" y="0" width="14" height="12" rx="3" fill="#fbf8f0" stroke="#e6dcc4"/><text x="20" y="10" class="small">DARTS cell DAG</text>
    </g>
    <g transform="translate(780,14)">
      <rect x="0" y="0" width="14" height="12" rx="3" fill="#fbf6e6" stroke="#e3d49a"/><text x="20" y="10" class="small">outer loop / topology</text>
    </g>
    <g transform="translate(950,14)">
      <rect x="0" y="0" width="14" height="12" rx="3" fill="#eaf4ed" stroke="#7fc09a"/><text x="20" y="10" class="small">derived child path</text>
    </g>
    <g transform="translate(150,40)">
      <line x1="0" y1="6" x2="24" y2="6" class="flow"/><text x="30" y="10" class="small">data flow</text>
      <line x1="130" y1="6" x2="154" y2="6" class="flowDim"/><text x="160" y="10" class="small">auxiliary / parameter flow (architecture &#945;)</text>
      <line x1="430" y1="6" x2="454" y2="6" class="winFlow"/><text x="460" y="10" class="small">winning-candidate path (after argmax)</text>
    </g>
  </g>
</svg>
